<?xml version="1.0" standalone="no"?>
<!DOCTYPE svg PUBLIC "-//W3C//DTD SVG 20010904//EN"
 "http://www.w3.org/TR/2001/REC-SVG-20010904/DTD/svg10.dtd">
<svg version="1.0" xmlns="http://www.w3.org/2000/svg"
 width="321.000000pt" height="157.000000pt" viewBox="0 0 321.000000 157.000000"
 preserveAspectRatio="xMidYMid meet">

<g transform="translate(0.000000,157.000000) scale(0.100000,-0.100000)"
fill="#000000" stroke="none">
<path d="M1591 1494 c-6 -23 -18 -47 -27 -55 -40 -33 -57 -106 -29 -129 12
-10 15 -10 15 0 0 7 20 35 45 61 51 55 59 99 26 140 l-19 24 -11 -41z"/>
<path d="M1660 1410 c0 -6 -18 -30 -40 -54 -22 -24 -40 -51 -40 -60 0 -16 15
-22 22 -8 2 4 20 20 41 35 30 23 37 34 37 63 0 18 -4 34 -10 34 -5 0 -10 -5
-10 -10z"/>
<path d="M1284 1230 c0 -58 1 -81 3 -52 2 28 2 76 0 105 -2 28 -3 5 -3 -53z"/>
<path d="M1924 1230 c0 -58 1 -81 3 -52 2 28 2 76 0 105 -2 28 -3 5 -3 -53z"/>
<path d="M1303 1168 c7 -154 24 -238 63 -307 27 -49 29 -55 12 -45 -7 5 -8 3
-4 -5 5 -7 10 -10 13 -7 3 3 31 -18 62 -47 32 -28 80 -64 107 -79 l51 -28 59
36 c32 19 81 56 107 82 26 26 50 45 53 44 3 -2 9 0 12 4 4 4 1 4 -5 0 -18 -10
-16 -5 11 45 39 69 56 153 63 307 l6 142 -129 -2 -129 -2 120 -6 120 -5 -2
-123 c-4 -196 -34 -291 -120 -383 -50 -54 -142 -119 -168 -119 -26 0 -118 65
-168 119 -86 92 -116 187 -120 383 l-2 123 100 6 100 5 -109 2 -109 2 6 -142z"/>
<path d="M1611 1235 c-1 -34 23 -77 91 -165 58 -75 73 -122 57 -183 -21 -86
-93 -146 -176 -148 l-38 -1 30 -9 c81 -25 201 50 225 140 23 87 5 137 -99 263
-32 40 -66 87 -74 103 l-16 30 0 -30z"/>
<path d="M1576 1185 c3 -22 12 -47 21 -55 14 -13 14 -12 8 10 -4 14 -14 39
-21 55 l-14 30 6 -40z"/>
<path d="M1537 1188 c-4 -14 -10 -34 -13 -45 -6 -17 -6 -17 10 -2 11 10 16 27
14 45 l-3 29 -8 -27z"/>
<path d="M1570 1092 c0 -40 1 -42 30 -42 18 0 30 5 30 13 0 7 -13 26 -30 42
l-30 29 0 -42z"/>
<path d="M1516 1090 l-29 -35 27 -3 c35 -4 38 -1 34 39 l-3 33 -29 -34z"/>
<path d="M1476 1006 c-3 -13 -9 -32 -13 -43 -5 -14 -1 -13 21 7 15 14 32 33
37 43 8 14 5 17 -15 17 -17 0 -26 -7 -30 -24z"/>
<path d="M1627 986 c21 -24 39 -43 41 -41 2 1 -3 21 -10 44 -11 35 -17 41 -41
41 l-28 0 38 -44z"/>
<path d="M1570 958 l0 -63 59 0 58 -1 -55 63 c-31 35 -57 63 -59 63 -2 0 -3
-28 -3 -62z"/>
<path d="M1492 953 l-50 -58 54 0 54 0 0 58 c0 31 -2 57 -4 57 -2 0 -26 -26
-54 -57z"/>
<path d="M1430 864 c-17 -10 -19 -13 -5 -9 11 4 43 11 70 15 l50 8 -45 0 c-25
1 -56 -6 -70 -14z"/>
<path d="M1635 870 c28 -4 61 -11 75 -14 16 -5 12 -1 -9 8 -18 9 -52 15 -75
15 l-41 -2 50 -7z"/>
<path d="M1451 851 c-10 -6 1 -8 30 -4 24 3 46 7 48 9 10 9 -65 3 -78 -5z"/>
<path d="M1601 856 c2 -2 24 -6 48 -9 29 -4 40 -2 30 4 -13 8 -88 14 -78 5z"/>
<path d="M1453 830 c-32 -13 -28 -21 5 -10 15 5 36 11 47 13 16 4 15 5 -5 5
-14 0 -35 -3 -47 -8z"/>
<path d="M1590 830 c-11 -7 -5 -8 20 -4 43 8 51 14 19 14 -13 0 -31 -5 -39
-10z"/>
<path d="M1670 820 c8 -5 22 -10 30 -10 13 0 13 1 0 10 -8 5 -22 10 -30 10
-13 0 -13 -1 0 -10z"/>
<path d="M1390 787 c0 -2 15 -16 33 -33 l32 -29 -29 33 c-28 30 -36 37 -36 29z"/>
<path d="M1784 758 l-29 -33 33 29 c30 28 37 36 29 36 -2 0 -16 -15 -33 -32z"/>
<path d="M1598 633 c7 -3 16 -2 19 1 4 3 -2 6 -13 5 -11 0 -14 -3 -6 -6z"/>
<path d="M1150 460 c0 -5 5 -10 10 -10 6 0 10 5 10 10 0 6 -4 10 -10 10 -5 0
-10 -4 -10 -10z"/>
<path d="M2890 460 c0 -5 5 -10 10 -10 6 0 10 5 10 10 0 6 -4 10 -10 10 -5 0
-10 -4 -10 -10z"/>
<path d="M248 358 c3 -65 5 -68 28 -68 14 0 34 5 45 10 21 12 26 55 7 64 -10
5 -10 7 0 12 6 3 12 14 12 25 0 20 -5 22 -60 23 l-35 1 3 -67z m66 53 c9 -14
-4 -41 -20 -41 -8 0 -14 10 -14 25 0 25 23 35 34 16z m1 -81 c0 -16 -6 -26
-17 -28 -14 -3 -18 3 -18 28 0 25 4 31 18 28 11 -2 17 -12 17 -28z"/>
<path d="M538 423 c8 -3 12 -25 12 -63 0 -37 -5 -60 -12 -63 -7 -3 3 -6 22 -6
23 0 30 2 22 8 -10 6 -13 26 -10 67 3 57 2 59 -22 60 -14 1 -19 -1 -12 -3z"/>
<path d="M607 395 l-28 -34 26 -36 c15 -19 34 -35 41 -35 21 0 17 11 -18 48
l-33 33 33 30 c18 16 27 29 20 28 -7 0 -26 -16 -41 -34z"/>
<path d="M720 424 c-11 -4 -14 -16 -12 -55 3 -29 -1 -56 -8 -64 -10 -13 -8
-15 11 -15 23 0 24 3 24 70 0 39 0 69 0 69 0 -1 -7 -3 -15 -5z"/>
<path d="M897 398 c-24 -57 -30 -81 -19 -74 5 3 12 19 16 36 6 33 26 33 26 0
0 -10 5 -22 11 -26 6 -3 9 -15 6 -25 -4 -15 0 -19 18 -19 l23 0 -27 65 c-15
36 -30 68 -34 71 -3 3 -12 -9 -20 -28z"/>
<path d="M1018 357 l4 -68 41 3 c23 2 42 9 43 16 1 7 0 8 -3 2 -2 -5 -16 -10
-30 -10 -24 0 -25 2 -21 63 3 57 1 62 -17 62 -18 0 -20 -5 -17 -68z"/>
<path d="M1145 358 c0 -65 1 -68 24 -68 19 0 21 2 11 15 -7 8 -11 35 -8 64 2
38 -1 51 -12 54 -12 3 -15 -9 -15 -65z"/>
<path d="M1305 358 c0 -39 4 -68 10 -68 6 0 9 22 7 52 l-3 53 49 -55 50 -55 3
71 c3 43 0 71 -6 71 -6 0 -9 -22 -6 -51 l3 -51 -40 51 c-56 70 -67 67 -67 -18z"/>
<path d="M1494 422 c-7 -4 -14 -35 -15 -70 l-4 -62 43 0 c34 0 42 3 41 18 0
10 -3 12 -6 5 -2 -7 -16 -13 -29 -13 -20 0 -24 5 -24 31 0 28 3 31 25 27 14
-3 25 -1 25 3 0 5 -11 9 -25 9 -20 0 -25 5 -25 26 0 23 3 26 25 22 14 -3 25
-1 25 3 0 11 -41 12 -56 1z"/>
<path d="M1595 358 c0 -62 2 -68 20 -68 18 0 20 5 17 35 -3 26 0 35 11 35 8 0
18 -6 20 -12 3 -7 6 -3 6 9 1 16 -3 20 -19 16 -16 -4 -20 0 -20 22 0 24 3 27
25 23 13 -3 22 -1 19 3 -3 5 -22 7 -42 6 l-37 -2 0 -67z"/>
<path d="M1700 421 c0 -4 10 -7 23 -7 19 1 22 -5 25 -47 2 -27 -2 -55 -9 -63
-9 -11 -7 -14 12 -14 23 0 24 2 21 65 -4 67 6 82 37 53 11 -11 13 -10 9 2 -3
11 -21 15 -61 16 -31 1 -57 -1 -57 -5z"/>
<path d="M1925 358 c0 -41 4 -68 10 -68 7 0 9 14 7 34 -8 68 3 74 30 18 14
-29 28 -50 30 -45 12 21 17 44 9 39 -5 -3 -18 16 -29 42 -14 32 -27 48 -39 48
-16 0 -18 -9 -18 -68z"/>
<path d="M2067 423 c-9 -2 -24 -17 -32 -33 -19 -37 -19 -53 1 -20 14 24 14 23
12 -28 -3 -46 -1 -52 17 -52 18 0 20 7 20 70 0 39 0 69 0 69 0 -1 -8 -3 -18
-6z"/>
<path d="M2153 423 c-7 -2 -13 -9 -13 -15 0 -7 5 -6 14 2 42 34 90 -20 70 -77
-13 -38 -60 -45 -73 -11 -5 13 -7 26 -4 31 2 4 -3 7 -11 7 -22 0 -20 -33 2
-53 23 -21 61 -22 90 -1 31 21 31 87 0 108 -22 16 -51 19 -75 9z"/>
<path d="M2291 416 c13 -14 11 -100 -3 -114 -9 -9 -7 -12 13 -12 23 0 24 3 24
68 0 62 -2 67 -22 67 -14 0 -18 -3 -12 -9z"/>
<path d="M2356 394 l-28 -34 26 -35 c15 -19 34 -35 42 -35 20 0 18 5 -18 46
l-32 36 32 29 c18 16 27 29 20 28 -7 0 -26 -16 -42 -35z"/>
<path d="M2440 420 c0 -5 9 -6 21 -3 20 6 21 3 17 -61 -3 -62 -2 -66 19 -66
20 0 21 3 12 29 -6 16 -9 44 -7 63 2 27 7 33 26 32 12 0 22 3 22 6 0 4 -25 7
-55 7 -30 0 -55 -3 -55 -7z"/>
<path d="M2608 419 c-10 -5 -18 -15 -18 -21 0 -6 9 -3 20 7 23 21 66 14 72
-12 2 -10 1 -34 -2 -53 -4 -27 -10 -36 -28 -38 -30 -4 -55 16 -49 40 3 11 0
18 -9 18 -21 0 -17 -48 5 -60 52 -27 111 5 111 60 0 54 -56 86 -102 59z"/>
<path d="M2748 358 c3 -65 5 -68 28 -68 14 0 34 5 45 10 21 12 26 55 7 64 -10
5 -10 7 0 12 6 3 12 14 12 25 0 19 -6 21 -65 23 l-30 1 3 -67z m65 50 c6 -19
-3 -38 -19 -38 -8 0 -14 10 -14 25 0 26 25 35 33 13z m2 -78 c0 -16 -6 -26
-17 -28 -14 -3 -18 3 -18 28 0 25 4 31 18 28 11 -2 17 -12 17 -28z"/>
<path d="M2885 358 c0 -65 1 -68 24 -68 19 0 21 2 11 15 -7 8 -11 35 -8 64 2
38 -1 51 -12 54 -12 3 -15 -9 -15 -65z"/>
<path d="M422 395 c-16 -35 -15 -43 2 -19 14 18 15 18 22 -11 4 -17 11 -35 16
-42 5 -7 7 -17 3 -23 -4 -6 4 -10 18 -10 l24 0 -31 65 c-16 36 -33 65 -36 65
-4 0 -12 -11 -18 -25z"/>
<path d="M394 328 c-4 -13 -12 -26 -18 -30 -7 -5 -3 -8 9 -8 15 0 20 7 21 30
1 36 -2 38 -12 8z"/>
<path d="M855 300 c-3 -5 1 -10 10 -10 9 0 13 5 10 10 -3 6 -8 10 -10 10 -2 0
-7 -4 -10 -10z"/>
<path d="M248 128 c3 -65 5 -68 28 -68 14 0 34 5 45 10 21 12 26 55 7 64 -10
5 -10 7 0 12 6 3 12 14 12 25 0 20 -5 22 -60 23 l-35 1 3 -67z m66 53 c9 -14
-4 -41 -20 -41 -8 0 -14 10 -14 25 0 25 23 35 34 16z m1 -81 c0 -16 -6 -26
-17 -28 -14 -3 -18 3 -18 28 0 25 4 31 18 28 11 -2 17 -12 17 -28z"/>
<path d="M422 183 c-14 -26 -15 -36 -3 -29 8 6 21 -15 21 -35 0 -17 -28 -9
-32 8 -2 11 -9 2 -20 -25 -13 -33 -14 -42 -3 -42 7 0 12 8 11 18 -1 13 7 17
29 17 22 0 30 -4 29 -17 -1 -12 5 -18 21 -18 23 0 23 0 6 38 -9 20 -24 53 -32
72 -15 33 -16 34 -27 13z"/>
<path d="M525 128 c0 -62 2 -68 21 -68 17 0 20 5 16 30 -5 38 3 38 35 0 39
-47 60 -38 22 10 l-33 40 29 30 c16 17 24 30 17 30 -6 0 -21 -13 -34 -30 -27
-37 -42 -38 -36 -2 3 22 0 27 -17 27 -18 0 -20 -6 -20 -67z"/>
<path d="M678 137 c3 -50 7 -60 27 -69 26 -12 75 -3 75 13 0 6 -6 6 -19 -1
-11 -5 -26 -7 -35 -4 -19 7 -31 77 -17 102 9 17 7 20 -12 18 -20 -1 -22 -5
-19 -59z"/>
<path d="M779 148 c5 -54 7 -51 13 15 2 21 0 37 -7 37 -6 0 -8 -20 -6 -52z"/>
<path d="M875 128 c0 -64 1 -68 23 -68 19 0 21 3 11 19 -18 28 -4 51 32 51 30
0 31 -2 27 -35 -4 -32 -2 -35 21 -35 19 0 22 3 13 12 -15 15 -16 100 -1 115 8
8 4 11 -13 10 -20 -2 -23 -6 -20 -29 4 -26 2 -28 -32 -28 -28 0 -36 4 -36 18
0 10 5 23 11 29 8 8 5 11 -12 10 -23 -2 -24 -6 -24 -69z"/>
<path d="M1035 129 c0 -62 2 -69 20 -69 18 0 20 7 20 68 0 60 -2 67 -20 68
-18 1 -20 -5 -20 -67z"/>
<path d="M1150 193 c-44 -16 -55 -91 -18 -117 23 -16 64 -21 92 -10 20 8 21
44 1 44 -8 0 -15 -9 -15 -21 0 -31 -50 -22 -70 14 -13 24 -13 30 0 55 17 30
53 40 76 22 8 -8 14 -8 14 -2 0 19 -46 27 -80 15z"/>
<path d="M1275 128 c0 -66 1 -68 25 -67 14 0 19 3 13 6 -7 2 -13 18 -13 34 0
27 3 29 36 29 35 0 36 -1 32 -35 -4 -32 -2 -35 22 -34 14 0 19 3 13 6 -8 3
-13 26 -13 63 0 38 4 60 13 63 6 2 1 4 -13 3 -22 -1 -25 -5 -22 -28 4 -26 2
-28 -32 -28 -31 0 -36 3 -36 24 0 13 6 26 13 29 6 2 1 4 -13 3 -24 -1 -25 -3
-25 -68z"/>
<path d="M1435 128 l0 -68 43 0 c23 0 42 4 42 8 0 4 -12 8 -27 7 -23 0 -28 4
-28 25 0 19 5 25 23 24 12 0 22 5 22 11 0 8 -10 10 -26 7 -22 -4 -25 -2 -22
19 3 27 36 38 50 17 8 -10 9 -10 5 2 -2 10 -17 15 -43 15 l-39 1 0 -68z"/>
<path d="M1558 143 c3 -34 0 -58 -8 -68 -10 -13 -9 -15 11 -15 23 0 24 2 21
65 -3 55 -1 65 12 65 22 0 32 -28 18 -51 -9 -14 -8 -25 6 -48 9 -17 23 -31 30
-31 17 0 15 7 -9 41 -18 26 -19 30 -5 45 9 8 16 19 16 24 0 15 -36 30 -67 27
-29 -2 -29 -2 -25 -54z"/>
<path d="M1756 179 c-50 -40 -21 -119 44 -119 17 0 39 9 50 20 41 41 12 120
-44 120 -13 0 -35 -9 -50 -21z m73 -3 c16 -20 17 -72 1 -91 -28 -34 -73 -7
-73 45 0 51 44 79 72 46z"/>
<path d="M1899 187 c15 -15 14 -100 -1 -115 -9 -9 -7 -12 13 -12 23 0 24 3 24
68 0 63 -1 67 -24 69 -17 1 -20 -2 -12 -10z"/>
<path d="M1975 128 l0 -68 43 0 c23 0 42 4 42 8 0 4 -12 8 -27 7 -26 0 -28 3
-31 48 -2 27 2 54 8 62 8 10 6 13 -12 12 -22 -2 -23 -6 -23 -69z"/>
<path d="M2152 188 c-6 -6 -12 -22 -12 -35 0 -18 7 -25 30 -30 35 -7 43 -15
34 -38 -5 -12 -15 -16 -35 -13 -16 3 -29 1 -29 -4 0 -14 58 -9 74 8 28 27 12
64 -26 64 -23 0 -35 27 -19 43 9 9 17 8 32 -2 18 -10 20 -10 17 1 -6 17 -50
22 -66 6z"/>
<path d="M2275 175 c-30 -30 -31 -54 -4 -89 15 -19 30 -26 54 -26 19 0 36 4
39 8 3 5 -8 7 -23 4 -17 -2 -34 3 -44 13 -20 19 -22 76 -5 93 18 18 55 15 67
-5 9 -16 10 -16 11 -2 0 36 -61 39 -95 4z"/>
<path d="M2403 164 c7 -24 7 -45 0 -69 -10 -33 -10 -35 11 -35 19 0 21 4 18
35 -4 34 -3 35 28 35 31 0 32 -1 28 -35 -3 -30 -1 -35 17 -35 18 0 20 6 20 69
0 63 -2 68 -20 67 -17 -1 -20 -6 -17 -28 4 -26 2 -28 -28 -28 -30 0 -32 2 -28
28 3 22 0 27 -18 28 -20 2 -21 -1 -11 -32z"/>
<path d="M2575 175 c-46 -45 -19 -115 45 -115 41 0 70 31 70 74 0 63 -69 87
-115 41z m82 -16 c26 -55 -20 -114 -63 -79 -17 15 -19 81 -2 98 19 19 51 10
65 -19z"/>
<path d="M2743 185 c-27 -19 -37 -59 -22 -88 16 -29 28 -37 62 -37 38 0 67 32
67 74 0 56 -59 85 -107 51z m73 -20 c23 -35 8 -89 -26 -93 -30 -5 -50 21 -50
63 0 57 47 75 76 30z"/>
<path d="M2879 190 c9 -5 12 -27 9 -69 l-3 -61 43 0 c23 0 42 4 42 8 0 5 -14
6 -31 4 l-31 -5 4 64 c3 62 2 64 -21 66 -15 1 -19 -2 -12 -7z"/>
</g>
</svg>
