<?xml version="1.0" encoding="UTF-8"?>
<svg xmlns="http://www.w3.org/2000/svg" xmlns:xlink="http://www.w3.org/1999/xlink" width="160px" height="55px" viewBox="0 0 159 55" version="1.1">
<g id="surface1">
<path style=" stroke:none;fill-rule:evenodd;fill:rgb(20%,62.745098%,48.627451%);fill-opacity:1;" d="M 37.996094 55 L 38.085938 55 C 38.085938 53.988281 38.160156 53.015625 38.171875 51.992188 C 38.183594 50.585938 38.289062 48.902344 38.285156 47.453125 C 38.285156 47 38.25 46.351562 38.289062 45.921875 C 38.382812 44.972656 38.265625 43.867188 38.339844 42.90625 C 38.375 42.4375 38.34375 41.820312 38.34375 41.335938 L 38.371094 36.761719 C 38.371094 36.1875 38.578125 31.03125 38.652344 30.851562 C 38.8125 31.894531 38.882812 32.648438 38.882812 33.753906 C 38.882812 34.21875 38.84375 34.875 38.886719 35.316406 C 38.914062 35.605469 38.949219 36.527344 38.921875 36.773438 C 38.886719 37.070312 38.910156 39.367188 38.910156 39.871094 C 38.914062 40.847656 38.855469 41.902344 38.855469 42.910156 L 38.796875 45.179688 C 38.800781 46.460938 38.710938 47.644531 38.710938 48.917969 C 38.710938 50.859375 38.570312 52.929688 38.570312 54.957031 C 38.761719 54.980469 39.023438 54.832031 39.214844 54.753906 C 40.132812 54.371094 40.195312 54.453125 40.402344 53.402344 C 40.53125 52.773438 40.699219 51.78125 40.40625 51.148438 C 40.25 50.804688 40.21875 50.839844 40.101562 50.617188 C 39.996094 50.417969 39.960938 50.160156 40 49.878906 C 40.101562 49.195312 40.894531 49.226562 41.222656 48.554688 C 41.648438 47.683594 41.054688 45.832031 41.222656 45.53125 C 41.253906 45.503906 41.210938 45.488281 41.339844 45.46875 C 41.386719 45.457031 41.421875 45.46875 41.480469 45.480469 C 41.710938 45.523438 42.023438 45.675781 42.265625 45.75 C 43.089844 46 43.753906 45.644531 43.964844 44.816406 C 44.144531 44.097656 43.863281 43.574219 44.148438 43.554688 C 44.398438 43.535156 44.867188 43.882812 45.035156 43.980469 C 45.425781 44.21875 45.820312 43.902344 45.710938 43.476562 C 45.613281 43.113281 45.492188 42.78125 45.304688 42.453125 C 45.085938 42.070312 44.878906 41.949219 44.65625 41.671875 C 44.457031 41.425781 44.222656 41.003906 44.230469 40.675781 C 44.253906 39.695312 45.132812 39.296875 45.351562 38.941406 C 45.636719 38.472656 45.34375 38.1875 45.152344 37.886719 C 44.667969 37.117188 46.28125 36.890625 45.699219 35.941406 C 45.609375 35.796875 45.421875 35.667969 45.472656 35.496094 C 45.539062 35.253906 45.640625 35.265625 45.871094 35.199219 C 46.230469 35.09375 46.417969 34.671875 46.210938 34.304688 C 46.058594 34.027344 45.855469 33.625 45.785156 33.304688 C 45.664062 32.757812 46.125 32.726562 46.011719 32.199219 C 45.851562 31.445312 45.691406 30.601562 45.542969 29.839844 C 45.171875 27.972656 44.757812 25.691406 44.355469 23.882812 C 44.261719 23.476562 44.269531 22.988281 44.222656 22.578125 C 44.179688 22.167969 44.105469 21.75 43.996094 21.363281 C 43.863281 20.886719 43.632812 20.261719 43.121094 20.082031 C 42.859375 19.988281 42.777344 20.035156 42.484375 20.039062 C 42.007812 20.046875 41.652344 19.914062 41.296875 19.785156 C 40.871094 19.632812 39.824219 19.085938 39.414062 18.8125 C 39.246094 18.699219 39.175781 18.605469 38.988281 18.507812 C 38.433594 18.21875 38.125 18.074219 37.441406 17.925781 C 36.738281 17.777344 35.742188 17.609375 34.933594 17.609375 C 34.628906 16.683594 34.183594 15.839844 33.441406 15.308594 C 32.621094 14.722656 32.335938 14.886719 31.691406 14.796875 C 31.632812 13.839844 31.738281 12.660156 31.632812 11.777344 C 31.886719 11.742188 32.207031 11.367188 32.339844 11.191406 C 32.683594 10.734375 32.96875 9.980469 33.148438 9.414062 C 33.304688 8.921875 33.199219 8.953125 33.660156 8.671875 C 33.875 8.539062 34.1875 8.269531 34.351562 8.070312 C 34.570312 7.804688 34.726562 7.609375 34.65625 7.09375 C 34.449219 5.53125 34.125 4.519531 33.433594 3.191406 C 33.296875 2.925781 33.097656 2.632812 32.925781 2.410156 C 32.828125 2.285156 32.757812 2.164062 32.660156 2.046875 C 32.390625 1.738281 32.011719 1.351562 31.703125 1.089844 C 31.605469 1.007812 31.597656 1.011719 31.5 0.941406 C 31.433594 0.898438 31.390625 0.855469 31.324219 0.804688 C 30.917969 0.5 30.042969 0.203125 29.5 0.0976562 C 29.339844 0.0625 29.066406 0.0546875 28.964844 0 L 27.8125 0 C 27.714844 0.0507812 27.316406 0.0820312 27.164062 0.121094 C 26.570312 0.265625 26.023438 0.480469 25.492188 0.742188 C 23.925781 1.519531 23.371094 2.53125 22.75 4.136719 C 22.304688 5.285156 22.050781 6.59375 21.835938 7.824219 C 21.738281 8.402344 21.867188 8.636719 22.179688 8.949219 C 22.429688 9.203125 22.707031 9.390625 23.078125 9.582031 C 23.894531 10.003906 23.78125 9.703125 23.917969 10.277344 C 24.285156 11.824219 25.101562 11.824219 25 13.804688 C 24.992188 13.964844 24.878906 14.984375 24.71875 15.035156 C 24.144531 15.035156 23.535156 15.347656 23.242188 15.640625 C 21.929688 16.949219 22.367188 18.84375 21.574219 19.410156 C 21.152344 19.710938 20.675781 19.511719 20.308594 19.214844 C 19.6875 18.71875 18.753906 18.386719 17.976562 18.761719 C 17.355469 19.0625 17.246094 19.324219 16.863281 19.707031 C 16.5625 20.007812 16.039062 20.398438 15.457031 20.25 C 14.765625 20.070312 14.378906 20.023438 13.640625 20.214844 C 12.824219 20.425781 12.863281 20.507812 12.261719 20.882812 C 12.105469 20.980469 11.742188 21.214844 11.5 21.117188 C 11.328125 21.046875 11.359375 20.945312 11.347656 20.753906 C 11.328125 20.46875 11.050781 20.355469 10.839844 20.238281 C 10.519531 20.0625 10.246094 19.699219 10.300781 19.261719 C 10.339844 18.964844 10.488281 18.796875 10.699219 18.617188 C 11.441406 17.984375 12.09375 17.273438 12.777344 16.582031 C 13.207031 16.140625 13.320312 15.675781 13.128906 15.039062 C 13.039062 14.746094 12.894531 14.582031 12.785156 14.351562 C 13.871094 13.78125 13.695312 13.828125 13.414062 13.457031 C 13.34375 13.359375 13.28125 13.234375 13.355469 13.140625 C 13.550781 12.894531 15.625 13.351562 16.878906 11.335938 C 17.035156 11.082031 17.027344 11.019531 17.25 10.804688 C 17.863281 10.210938 18.457031 9.5625 18.757812 8.753906 C 18.886719 8.417969 18.925781 8.523438 19.222656 8.347656 L 20.027344 7.792969 C 20.105469 7.734375 20.167969 7.65625 20.238281 7.585938 C 20.390625 7.433594 20.53125 7.273438 20.644531 7.085938 C 20.734375 6.929688 20.820312 6.519531 20.5625 6.449219 C 20.277344 6.371094 19.601562 6.796875 19.332031 6.957031 C 18.953125 7.179688 18.585938 7.371094 18.199219 7.601562 C 18.015625 7.710938 17.804688 7.816406 17.625 7.933594 L 16.519531 8.597656 C 16.410156 8.660156 16.335938 8.71875 16.242188 8.773438 L 13.261719 10.671875 C 12.765625 11 12.128906 11.449219 11.648438 11.71875 C 10.75 11.339844 10.40625 12.472656 10.019531 12.261719 C 9.914062 12.203125 9.683594 11.957031 9.644531 11.863281 C 8.804688 12.046875 7.214844 13.957031 6.578125 14.714844 L 3.992188 18.027344 C 3.664062 18.472656 3.917969 18.191406 3.5 18.441406 C 2.5 19.039062 1.554688 21.226562 1.054688 22.304688 C 0.949219 22.53125 0.789062 22.695312 0.957031 22.9375 L 1.742188 23.933594 C 2.035156 24.273438 2.328125 24.546875 2.632812 24.855469 C 3.136719 25.367188 3.777344 25.851562 4.410156 26.25 C 4.878906 26.546875 5.332031 26.796875 5.855469 27.027344 C 6.585938 27.351562 7.507812 27.605469 7.84375 27.757812 C 9.109375 28.332031 11.292969 28.867188 12.6875 29.214844 C 13.167969 29.335938 13.644531 29.457031 14.136719 29.570312 C 15.320312 29.84375 15.75 29.738281 16.449219 30.851562 C 16.867188 31.511719 17.050781 32.929688 17.007812 33.929688 C 16.953125 35.300781 17.234375 36.609375 17.398438 37.964844 C 17.53125 39.078125 17.492188 39.476562 17.492188 40.601562 C 17.492188 41.523438 17.445312 43.398438 17.5 44.203125 C 17.632812 44.296875 17.890625 44.445312 17.902344 44.625 C 17.921875 44.859375 17.683594 44.957031 17.492188 45 C 17.492188 45.351562 17.496094 45.703125 17.492188 46.054688 C 17.488281 46.394531 17.488281 46.257812 17.625 46.441406 C 17.820312 46.699219 17.574219 46.976562 17.507812 47.226562 C 17.449219 47.449219 17.492188 48.511719 17.492188 48.789062 C 18.058594 48.664062 19.003906 47.542969 19.375 47.046875 C 19.53125 46.839844 19.589844 46.710938 19.726562 46.484375 C 20.367188 45.425781 20.816406 46.074219 21.6875 45.804688 C 22.75 45.476562 22.601562 44.328125 23.375 43.867188 C 23.738281 43.648438 24.152344 43.445312 24.5625 43.242188 C 26.019531 42.511719 25.644531 42.121094 26.414062 41.46875 C 26.875 41.078125 27.5 40.714844 28.054688 40.390625 C 29.117188 39.773438 29.804688 38.992188 31.1875 38.992188 C 32.082031 38.988281 32.414062 39.433594 32.9375 39.960938 C 33.089844 40.113281 33.230469 40.292969 33.398438 40.40625 C 33.617188 40.550781 33.933594 40.859375 34.078125 41.085938 C 34.289062 41.402344 35.476562 42.464844 35.371094 42.925781 C 35.328125 43.121094 34.96875 43.167969 34.734375 43.195312 C 34.117188 43.265625 33.71875 43.238281 33.34375 43.609375 C 32.996094 43.957031 32.929688 44.464844 33.101562 45.042969 C 33.394531 46.035156 34.207031 46.34375 34.761719 47 C 35.175781 47.484375 34.523438 47.773438 34.121094 47.886719 C 33.21875 48.132812 31.019531 48.175781 31.523438 49.703125 C 31.59375 49.917969 31.777344 50.082031 31.945312 50.183594 C 32.765625 50.675781 33.070312 50.242188 34.140625 51.613281 C 34.449219 52.011719 34.238281 52.433594 34.859375 52.703125 C 35.074219 52.792969 35.246094 52.910156 35.433594 53.039062 C 36.46875 53.734375 36.152344 53.59375 36.789062 54.398438 C 37.222656 54.945312 37.574219 54.765625 37.996094 55 Z M 37.996094 55 "/>
<path style=" stroke:none;fill-rule:evenodd;fill:rgb(20%,62.745098%,48.627451%);fill-opacity:1;" d="M 0 38.328125 L 0 38.714844 C 0.09375 38.871094 0.164062 39.023438 0.296875 39.152344 C 0.726562 39.582031 0.902344 39.710938 1.234375 40.378906 C 1.394531 40.707031 1.542969 41.03125 1.722656 41.355469 C 1.878906 41.632812 2.089844 41.984375 2.296875 42.207031 C 2.613281 42.546875 3.222656 42.855469 3.445312 43.257812 C 3.570312 43.480469 3.5625 43.527344 3.597656 43.800781 C 3.628906 44.046875 3.714844 44.152344 3.726562 44.414062 C 3.738281 44.652344 3.765625 44.796875 3.898438 44.929688 C 4.503906 45.542969 5.460938 44.726562 6.609375 46.542969 C 6.976562 47.128906 6.65625 47.757812 8 48.007812 C 8.976562 48.1875 9.421875 48.230469 10.300781 48.59375 C 11.574219 49.113281 11.148438 48.976562 12.539062 49.207031 C 12.917969 49.269531 13.484375 49.464844 13.691406 49.085938 C 13.851562 48.792969 13.578125 48.1875 13.484375 47.945312 C 13.351562 47.609375 13.199219 47.273438 13.082031 46.917969 C 12.84375 46.191406 12.738281 46.304688 12.617188 45.957031 C 11.980469 44.160156 13.066406 43.699219 11.292969 43.023438 C 10.203125 42.605469 10.335938 42.8125 10.578125 41.941406 C 10.757812 41.292969 10.820312 40.742188 10.3125 40.300781 C 9.355469 39.464844 8.898438 39.695312 7.820312 40.324219 C 7.5 40.511719 7.191406 40.875 6.859375 40.808594 C 5.960938 40.632812 5.398438 39.78125 5.132812 39.675781 C 4.898438 39.585938 4.640625 39.675781 4.601562 39.65625 C 4.539062 39.609375 4.542969 39.328125 4.53125 39.230469 C 4.511719 39.058594 4.511719 39.003906 4.445312 38.863281 C 4.191406 38.332031 3.261719 37.675781 2.882812 37.648438 C 2.570312 37.625 2.367188 37.71875 2.132812 37.824219 C 1.429688 38.136719 0.933594 37.9375 0.523438 37.960938 C 0.160156 37.980469 0.101562 38.164062 0 38.328125 Z M 0 38.328125 "/>
<path style=" stroke:none;fill-rule:evenodd;fill:rgb(20%,62.745098%,48.627451%);fill-opacity:1;" d="M 7.003906 28.003906 C 7.078125 28.054688 7.136719 28.175781 7.207031 28.257812 C 7.65625 28.761719 7.910156 28.941406 8.378906 29.351562 C 9.097656 29.96875 9.652344 30.292969 10.371094 31.019531 C 10.96875 31.621094 11.855469 32.476562 11.613281 33.375 C 11.367188 34.277344 10.90625 34.367188 9.910156 34.417969 C 9.214844 34.449219 8.960938 34.4375 8.46875 34.789062 C 7.890625 35.195312 8.652344 35.429688 9.078125 35.566406 C 10.207031 35.9375 10.0625 36.320312 10.546875 36.851562 C 11.246094 37.625 11.242188 37.191406 11.902344 38.214844 C 12.15625 38.605469 12.359375 38.910156 12.792969 39.171875 C 14.339844 40.121094 14.46875 39.703125 15.679688 39.824219 C 16.101562 39.867188 16.640625 40.179688 17.035156 40.300781 C 17.046875 39.882812 17.070312 39.261719 17.035156 38.859375 C 16.929688 37.710938 16.6875 36.328125 16.558594 35.144531 C 16.464844 34.269531 16.59375 33.304688 16.464844 32.433594 C 16.292969 31.261719 15.808594 30.238281 14.59375 30.132812 C 14.222656 30.101562 11.695312 29.460938 11.222656 29.320312 C 10.503906 29.109375 9.753906 28.941406 9.0625 28.703125 C 8.714844 28.582031 7.167969 27.988281 7.003906 28.003906 Z M 7.003906 28.003906 "/>
<path style=" stroke:none;fill-rule:evenodd;fill:rgb(20%,62.745098%,48.627451%);fill-opacity:1;" d="M 14.292969 13.464844 C 14.519531 13.671875 14.566406 13.808594 14.933594 13.957031 C 15.335938 14.121094 15.339844 14.125 15.402344 14.605469 C 15.457031 15.039062 15.667969 15.453125 16.007812 15.710938 C 16.078125 15.765625 16.089844 15.757812 16.171875 15.824219 L 16.796875 16.351562 C 16.882812 16.414062 16.871094 16.390625 16.957031 16.46875 C 17.171875 16.652344 17.339844 16.828125 17.539062 17 C 17.742188 17.171875 18.59375 18.113281 18.667969 18.125 C 19.070312 18.125 19.4375 18.207031 19.75 18.34375 C 20.023438 18.46875 20.332031 18.644531 20.542969 18.804688 C 20.730469 18.953125 21.128906 19.292969 21.40625 18.929688 C 21.859375 18.320312 21.53125 16.714844 22.902344 15.332031 C 23.296875 14.933594 23.378906 15.003906 23.628906 14.816406 C 23.625 14.65625 23.492188 14.472656 23.390625 14.40625 C 23.074219 14.199219 22.40625 14.746094 21.988281 14.0625 C 21.816406 13.785156 21.910156 13.378906 21.699219 13.0625 C 21.597656 12.90625 21.230469 12.726562 20.964844 12.542969 C 20.789062 12.421875 20.664062 12.457031 20.527344 12.320312 C 20.25 12.042969 20.230469 11.492188 19.761719 11.203125 C 19.289062 10.90625 18.457031 11.316406 18.15625 11.175781 C 18.027344 11.113281 17.972656 10.957031 17.871094 10.84375 C 17.515625 11.09375 17.394531 11.371094 17.191406 11.722656 C 16.667969 12.625 15.359375 13.390625 14.292969 13.464844 Z M 14.292969 13.464844 "/>
<path style=" stroke:none;fill-rule:evenodd;fill:rgb(20%,62.745098%,48.627451%);fill-opacity:1;" d="M 33.699219 14.886719 C 33.722656 14.914062 33.6875 14.878906 33.746094 14.9375 L 33.929688 15.097656 C 34.019531 15.183594 34.085938 15.257812 34.171875 15.34375 C 34.359375 15.527344 34.441406 15.671875 34.605469 15.886719 C 34.824219 16.171875 34.96875 16.476562 35.117188 16.804688 L 35.261719 17.117188 C 35.3125 17.195312 36.203125 17.242188 36.339844 17.257812 C 36.695312 17.300781 37.015625 17.347656 37.351562 17.425781 C 38.085938 17.59375 38.523438 17.742188 39.128906 18.050781 C 39.394531 18.183594 39.503906 18.316406 39.644531 18.402344 L 40.613281 18.96875 C 41 19.179688 41.992188 19.613281 42.484375 19.582031 C 42.734375 19.566406 42.859375 19.507812 43.175781 19.605469 C 43.171875 19.195312 42.8125 17.777344 42.621094 17.40625 C 42.460938 17.089844 42.328125 16.800781 42.121094 16.507812 L 40.921875 14.917969 C 40.738281 14.621094 40.542969 14.382812 40.378906 14.070312 C 40.035156 13.417969 39.675781 12.941406 39.289062 12.367188 C 38.9375 11.835938 38.390625 11.40625 37.828125 11.078125 C 36.796875 10.476562 37.285156 11.246094 36.519531 12.140625 C 35.867188 12.898438 36.148438 12.558594 35.707031 13.417969 L 35.445312 13.855469 C 34.882812 14.609375 34.269531 14.636719 33.699219 14.886719 Z M 33.699219 14.886719 "/>
<path style=" stroke:none;fill-rule:evenodd;fill:rgb(20%,62.745098%,48.627451%);fill-opacity:1;" d="M 55.210938 31.25 L 55.210938 30.550781 C 55.144531 30.417969 55.121094 30.207031 55.0625 30.058594 C 54.929688 29.71875 54.609375 29.195312 54.382812 28.925781 L 53.222656 27.644531 C 52.75 27.191406 52.144531 26.941406 51.433594 27.023438 C 50.785156 27.101562 49.726562 27.035156 49.09375 26.980469 C 48.628906 26.941406 47.257812 26.917969 46.917969 26.714844 C 46.652344 26.558594 46.492188 26.351562 46.398438 26.015625 C 46.277344 25.566406 46.472656 25.339844 46.675781 25.105469 C 47.210938 24.472656 46.867188 23.851562 46.339844 23.515625 C 46.042969 23.328125 45.824219 23.257812 45.507812 23.132812 C 44.945312 22.914062 45.019531 22.863281 44.714844 22.703125 C 44.710938 23.058594 44.773438 23.621094 44.847656 23.976562 C 44.929688 24.375 45 24.765625 45.074219 25.136719 C 45.175781 25.648438 46.398438 31.921875 46.484375 32.085938 C 46.636719 32.023438 46.75 31.882812 46.957031 31.75 C 48.214844 30.921875 49.429688 30.476562 50.96875 30.257812 C 52.226562 30.082031 53.132812 30.125 54.035156 30.917969 C 54.476562 31.304688 54.40625 31.726562 54.859375 31.65625 C 54.972656 31.640625 55.050781 31.582031 55.101562 31.511719 C 55.195312 31.394531 55.15625 31.347656 55.210938 31.25 Z M 55.210938 31.25 "/>
<path style=" stroke:none;fill-rule:evenodd;fill:rgb(20%,62.745098%,48.627451%);fill-opacity:1;" d="M 17.039062 41.222656 C 16.8125 41.230469 15.980469 41.378906 15.808594 41.46875 C 15.621094 41.5625 15.523438 41.621094 15.453125 41.839844 C 15.253906 42.433594 15.972656 42.707031 16.378906 42.976562 C 16.765625 43.234375 16.683594 43.246094 17.035156 43.730469 Z M 17.039062 41.222656 "/>
<path style=" stroke:none;fill-rule:evenodd;fill:rgb(20%,62.745098%,48.627451%);fill-opacity:1;" d="M 2.65625 18.578125 C 3.019531 18.175781 3.023438 18.21875 3.410156 17.964844 C 3.640625 17.8125 3.839844 17.433594 4.015625 17.214844 C 4.113281 17.089844 5.152344 15.75 5.167969 15.667969 C 4.382812 15.777344 3.335938 16.757812 2.96875 17.554688 C 2.855469 17.808594 2.621094 18.257812 2.65625 18.578125 Z M 2.65625 18.578125 "/>
<path style=" stroke:none;fill-rule:evenodd;fill:rgb(20%,62.745098%,48.627451%);fill-opacity:1;" d="M 11.226562 19.921875 C 11.667969 20.207031 11.542969 20.152344 11.820312 20.574219 C 11.953125 20.5625 12.019531 20.480469 12.136719 20.410156 C 12.648438 20.09375 12.273438 20.203125 13.058594 19.902344 C 13.820312 19.609375 14.523438 19.613281 14.628906 19.582031 C 13.460938 19.582031 12.484375 19.734375 11.46875 19.359375 C 11.386719 19.328125 10.898438 19.125 10.859375 19.136719 C 10.625 19.210938 10.867188 19.675781 10.945312 19.75 C 11.003906 19.800781 11.132812 19.863281 11.226562 19.921875 Z M 11.226562 19.921875 "/>
<path style=" stroke:none;fill-rule:evenodd;fill:rgb(20%,62.745098%,48.627451%);fill-opacity:1;" d="M 17.027344 45.050781 C 16.730469 45.050781 16.058594 45.1875 16.132812 45.558594 C 16.179688 45.800781 16.757812 46.035156 17.039062 46.109375 Z M 17.027344 45.050781 "/>
<path style=" stroke:none;fill-rule:evenodd;fill:rgb(20%,62.745098%,48.627451%);fill-opacity:1;" d="M 67.609375 43.285156 L 72.382812 43.285156 L 72.382812 31.1875 L 80.628906 17.539062 L 75.367188 17.539062 L 70.03125 26.460938 L 64.730469 17.539062 L 59.464844 17.539062 L 67.609375 31.082031 Z M 76.699219 43.285156 L 81.683594 43.285156 L 83.261719 38.703125 L 93.195312 38.703125 L 94.773438 43.285156 L 99.757812 43.285156 L 90.632812 17.539062 L 85.824219 17.539062 Z M 88.246094 24.34375 L 91.613281 34.117188 L 84.875 34.117188 Z M 120.570312 43.285156 L 125.554688 43.285156 L 127.132812 38.703125 L 137.066406 38.703125 L 138.644531 43.285156 L 143.628906 43.285156 L 134.503906 17.539062 L 129.695312 17.539062 Z M 132.117188 24.34375 L 135.484375 34.117188 L 128.746094 34.117188 Z M 147.347656 43.285156 L 152.121094 43.285156 L 152.121094 22.121094 L 159 22.121094 L 159 17.539062 L 140.503906 17.539062 L 140.503906 22.121094 L 147.347656 22.121094 Z M 115.886719 42.019531 C 118.058594 40.492188 119.234375 38.082031 119.234375 35.632812 C 119.234375 30.695312 115.304688 29.140625 111.832031 28.011719 C 109.023438 27.0625 106.601562 26.460938 106.601562 24.378906 C 106.601562 22.722656 107.828125 21.453125 110.179688 21.453125 C 112.179688 21.453125 113.726562 22.265625 114.8125 23.921875 L 118.746094 20.921875 C 116.675781 18.773438 114.253906 17.183594 110.144531 17.183594 C 105.230469 17.183594 101.652344 20.429688 101.652344 24.554688 C 101.652344 29.460938 105.441406 30.765625 108.917969 31.894531 C 111.621094 32.738281 114.253906 33.445312 114.253906 35.597656 C 114.253906 37.394531 112.882812 39.054688 110.355469 39.054688 C 109.765625 39.054688 109.199219 38.976562 108.660156 38.824219 C 108.871094 39.078125 109.085938 39.332031 109.292969 39.585938 C 109.648438 40.003906 110.007812 40.417969 110.367188 40.832031 C 110.382812 40.804688 110.398438 40.773438 110.410156 40.746094 C 110.625 40.328125 110.925781 39.949219 111.34375 39.726562 C 111.710938 39.53125 112.105469 39.476562 112.496094 39.628906 L 112.507812 39.632812 L 112.523438 39.640625 C 112.730469 39.734375 112.90625 39.875 113.019531 40.074219 C 113.070312 40.128906 113.128906 40.179688 113.195312 40.214844 C 113.5625 40.417969 113.84375 40.765625 113.6875 41.203125 L 113.679688 41.21875 L 113.671875 41.238281 C 113.523438 41.574219 113.1875 41.691406 112.84375 41.679688 L 112.808594 41.675781 L 112.769531 41.671875 C 112.765625 41.671875 112.761719 41.667969 112.753906 41.667969 C 112.890625 41.96875 112.929688 42.304688 112.914062 42.644531 C 112.914062 42.664062 112.914062 42.691406 112.917969 42.71875 C 113.546875 42.402344 114.265625 42.054688 114.9375 41.859375 L 114.957031 41.855469 L 114.980469 41.851562 C 115.300781 41.789062 115.664062 41.808594 115.886719 42.019531 Z M 106.523438 37.703125 C 105.839844 37.148438 105.242188 36.433594 104.742188 35.5625 L 100.390625 39.019531 C 102.136719 40.984375 104.273438 42.582031 107.148438 43.273438 C 107.4375 42.957031 107.761719 42.671875 108.121094 42.429688 C 107.703125 42.066406 107.332031 41.652344 107.019531 41.195312 L 107.011719 41.179688 C 106.707031 40.703125 106.488281 40.097656 106.3125 39.550781 C 106.199219 39.164062 106.148438 38.753906 106.144531 38.347656 L 106.144531 38.273438 L 106.167969 38.203125 C 106.234375 37.984375 106.359375 37.816406 106.523438 37.703125 Z M 106.523438 37.703125 "/>
<path style=" stroke:none;fill-rule:evenodd;fill:rgb(20%,62.745098%,48.627451%);fill-opacity:1;" d="M 106.660156 44.761719 C 107.269531 43.699219 108.050781 42.9375 108.996094 42.480469 C 108.660156 42.238281 108.492188 42.113281 108.492188 42.113281 C 108.078125 41.757812 107.71875 41.363281 107.417969 40.917969 C 107.199219 40.578125 106.988281 40.078125 106.777344 39.414062 C 106.679688 39.09375 106.632812 38.738281 106.628906 38.347656 C 106.695312 38.128906 106.851562 38.023438 107.101562 38.035156 C 107.332031 38.066406 107.570312 38.242188 107.8125 38.558594 C 108.554688 39.457031 108.925781 39.902344 108.925781 39.902344 C 109.910156 41.046875 110.402344 41.617188 110.402344 41.617188 C 110.566406 41.441406 110.710938 41.222656 110.839844 40.96875 C 111.046875 40.574219 111.289062 40.300781 111.570312 40.152344 C 111.832031 40.011719 112.082031 39.988281 112.324219 40.082031 C 112.46875 40.148438 112.566406 40.238281 112.621094 40.347656 C 112.722656 40.472656 112.835938 40.570312 112.964844 40.640625 C 113.195312 40.765625 113.28125 40.898438 113.234375 41.039062 C 113.183594 41.148438 113.058594 41.199219 112.859375 41.195312 C 112.65625 41.15625 112.476562 41.179688 112.308594 41.265625 C 112.183594 41.316406 112.109375 41.332031 112.078125 41.320312 C 112.054688 41.460938 112.085938 41.566406 112.175781 41.636719 C 112.371094 41.882812 112.453125 42.214844 112.429688 42.636719 C 112.4375 42.941406 112.472656 43.148438 112.542969 43.25 C 112.636719 43.328125 112.820312 43.300781 113.085938 43.175781 C 113.941406 42.746094 114.605469 42.460938 115.070312 42.328125 C 115.394531 42.265625 115.570312 42.316406 115.609375 42.476562 C 115.648438 42.601562 115.597656 42.722656 115.464844 42.847656 C 114.800781 43.542969 114.46875 43.890625 114.46875 43.890625 C 114.078125 44.3125 113.882812 44.523438 113.882812 44.523438 C 114.152344 44.671875 114.371094 44.890625 114.539062 45.183594 C 114.722656 45.429688 114.816406 45.8125 114.816406 46.339844 C 114.832031 46.664062 114.835938 46.824219 114.835938 46.824219 C 114.847656 46.886719 114.863281 46.917969 114.875 46.925781 C 115.042969 47.070312 115.066406 47.269531 114.9375 47.527344 C 114.792969 47.792969 114.460938 47.890625 113.941406 47.820312 C 113.453125 47.777344 113.011719 47.640625 112.625 47.414062 C 112.4375 47.285156 112.28125 47.15625 112.167969 47.03125 C 112.214844 47.316406 112.1875 47.523438 112.082031 47.652344 C 111.914062 47.769531 111.730469 47.757812 111.535156 47.617188 C 111.34375 47.449219 111.066406 46.929688 110.695312 46.058594 C 110.429688 46.238281 110.148438 46.257812 109.855469 46.117188 C 109.777344 46.070312 109.714844 46.011719 109.664062 45.945312 C 109.519531 46.242188 109.25 46.523438 108.863281 46.785156 C 108.039062 47.492188 107.058594 47.84375 105.925781 47.84375 C 105.816406 47.773438 105.761719 47.625 105.761719 47.402344 C 105.898438 46.378906 106.195312 45.496094 106.660156 44.761719 Z M 106.660156 44.761719 "/>
<path style=" stroke:none;fill-rule:nonzero;fill:rgb(20%,62.745098%,48.627451%);fill-opacity:1;" d="M 62.902344 14.398438 L 63.570312 14.398438 L 63.054688 13.765625 C 63.386719 13.390625 63.597656 12.914062 63.597656 12.375 C 63.597656 11.226562 62.675781 10.296875 61.527344 10.296875 C 60.386719 10.296875 59.464844 11.226562 59.464844 12.375 C 59.464844 13.523438 60.386719 14.453125 61.527344 14.453125 C 61.867188 14.453125 62.179688 14.371094 62.460938 14.222656 L 62.128906 13.800781 C 61.949219 13.882812 61.753906 13.933594 61.527344 13.933594 C 60.675781 13.933594 60.007812 13.230469 60.007812 12.375 C 60.007812 11.515625 60.675781 10.816406 61.527344 10.816406 C 62.390625 10.816406 63.0625 11.515625 63.0625 12.375 C 63.0625 12.753906 62.929688 13.078125 62.714844 13.339844 L 62.089844 12.570312 L 61.445312 12.570312 Z M 65.675781 11.089844 C 64.976562 11.089844 64.457031 11.53125 64.207031 11.992188 L 64.667969 12.253906 C 64.84375 11.898438 65.191406 11.578125 65.6875 11.578125 C 66.332031 11.578125 66.773438 12.070312 66.84375 12.597656 L 64.039062 12.597656 L 64.039062 12.820312 C 64.039062 13.726562 64.753906 14.464844 65.703125 14.464844 C 66.664062 14.464844 67.378906 13.722656 67.378906 12.757812 C 67.378906 11.894531 66.707031 11.089844 65.675781 11.089844 Z M 65.703125 13.984375 C 65.101562 13.984375 64.660156 13.476562 64.589844 13.066406 L 66.828125 13.066406 C 66.722656 13.554688 66.261719 13.984375 65.703125 13.984375 Z M 67.976562 14.398438 L 68.503906 14.398438 L 68.503906 10.296875 L 67.976562 10.296875 Z M 70.726562 11.089844 C 70.027344 11.089844 69.507812 11.53125 69.257812 11.992188 L 69.71875 12.253906 C 69.894531 11.898438 70.242188 11.578125 70.738281 11.578125 C 71.382812 11.578125 71.824219 12.070312 71.894531 12.597656 L 69.089844 12.597656 L 69.089844 12.820312 C 69.089844 13.726562 69.804688 14.464844 70.753906 14.464844 C 71.714844 14.464844 72.429688 13.722656 72.429688 12.757812 C 72.429688 11.894531 71.757812 11.089844 70.726562 11.089844 Z M 70.753906 13.984375 C 70.152344 13.984375 69.710938 13.476562 69.640625 13.066406 L 71.878906 13.066406 C 71.773438 13.554688 71.3125 13.984375 70.753906 13.984375 Z M 74.722656 14.464844 C 75.625 14.464844 76.363281 13.742188 76.363281 12.78125 C 76.363281 11.808594 75.640625 11.089844 74.71875 11.089844 C 74.261719 11.089844 73.796875 11.3125 73.539062 11.695312 L 73.539062 10.296875 L 73.027344 10.296875 L 73.027344 14.398438 L 73.53125 14.398438 L 73.53125 13.855469 C 73.792969 14.25 74.265625 14.464844 74.722656 14.464844 Z M 74.675781 13.976562 C 73.996094 13.976562 73.5 13.445312 73.5 12.773438 C 73.5 12.109375 73.996094 11.570312 74.675781 11.570312 C 75.324219 11.570312 75.832031 12.109375 75.832031 12.773438 C 75.832031 13.445312 75.324219 13.976562 74.675781 13.976562 Z M 78.445312 11.089844 C 77.746094 11.089844 77.226562 11.53125 76.980469 11.992188 L 77.4375 12.253906 C 77.613281 11.898438 77.960938 11.578125 78.457031 11.578125 C 79.101562 11.578125 79.542969 12.070312 79.613281 12.597656 L 76.808594 12.597656 L 76.808594 12.820312 C 76.808594 13.726562 77.523438 14.464844 78.472656 14.464844 C 79.433594 14.464844 80.148438 13.722656 80.148438 12.757812 C 80.148438 11.894531 79.476562 11.089844 78.445312 11.089844 Z M 78.472656 13.984375 C 77.871094 13.984375 77.429688 13.476562 77.359375 13.066406 L 79.597656 13.066406 C 79.492188 13.554688 79.03125 13.984375 78.472656 13.984375 Z M 80.738281 14.398438 L 81.265625 14.398438 L 81.265625 12.601562 C 81.265625 12 81.6875 11.5625 82.25 11.5625 C 82.886719 11.5625 83.195312 11.953125 83.195312 12.582031 L 83.195312 14.398438 L 83.722656 14.398438 L 83.722656 12.558594 C 83.722656 11.644531 83.195312 11.089844 82.351562 11.089844 C 81.863281 11.089844 81.480469 11.316406 81.257812 11.65625 L 81.257812 11.15625 L 80.738281 11.15625 Z M 84.417969 14.398438 L 84.949219 14.398438 L 84.949219 11.15625 L 84.417969 11.15625 Z M 84.308594 10.363281 C 84.308594 10.589844 84.445312 10.742188 84.683594 10.742188 C 84.925781 10.742188 85.0625 10.589844 85.0625 10.363281 C 85.0625 10.140625 84.925781 9.992188 84.683594 9.992188 C 84.457031 9.992188 84.308594 10.140625 84.308594 10.363281 Z M 88.730469 14.464844 C 89.628906 14.464844 90.367188 13.742188 90.367188 12.78125 C 90.367188 11.808594 89.644531 11.089844 88.722656 11.089844 C 88.265625 11.089844 87.804688 11.3125 87.542969 11.695312 L 87.542969 10.296875 L 87.03125 10.296875 L 87.03125 14.398438 L 87.539062 14.398438 L 87.539062 13.855469 C 87.796875 14.25 88.273438 14.464844 88.730469 14.464844 Z M 88.679688 13.976562 C 88.003906 13.976562 87.503906 13.445312 87.503906 12.773438 C 87.503906 12.109375 88.003906 11.570312 88.679688 11.570312 C 89.332031 11.570312 89.839844 12.109375 89.839844 12.773438 C 89.839844 13.445312 89.332031 13.976562 88.679688 13.976562 Z M 90.941406 14.398438 L 91.46875 14.398438 L 91.46875 11.15625 L 90.941406 11.15625 Z M 90.832031 10.363281 C 90.832031 10.589844 90.96875 10.742188 91.207031 10.742188 C 91.449219 10.742188 91.585938 10.589844 91.585938 10.363281 C 91.585938 10.140625 91.449219 9.992188 91.207031 9.992188 C 90.980469 9.992188 90.832031 10.140625 90.832031 10.363281 Z M 92.070312 14.398438 L 94.898438 14.398438 L 94.898438 13.921875 L 92.722656 13.921875 L 94.878906 11.648438 L 94.878906 11.15625 L 92.125 11.15625 L 92.125 11.628906 L 94.226562 11.628906 L 92.070312 13.90625 Z M 97.011719 11.089844 C 96.3125 11.089844 95.792969 11.53125 95.546875 11.992188 L 96.003906 12.253906 C 96.179688 11.898438 96.527344 11.578125 97.023438 11.578125 C 97.667969 11.578125 98.109375 12.070312 98.179688 12.597656 L 95.375 12.597656 L 95.375 12.820312 C 95.375 13.726562 96.089844 14.464844 97.039062 14.464844 C 98 14.464844 98.714844 13.722656 98.714844 12.757812 C 98.714844 11.894531 98.042969 11.089844 97.011719 11.089844 Z M 97.039062 13.984375 C 96.4375 13.984375 95.996094 13.476562 95.925781 13.066406 L 98.164062 13.066406 C 98.058594 13.554688 97.597656 13.984375 97.039062 13.984375 Z M 101.121094 15.890625 L 101.671875 15.890625 L 103.691406 11.15625 L 103.128906 11.15625 L 102.117188 13.609375 L 101.03125 11.15625 L 100.457031 11.15625 L 101.847656 14.222656 Z M 105.53125 14.464844 C 105.757812 14.464844 105.976562 14.410156 106.191406 14.304688 C 106.414062 14.199219 106.589844 14.042969 106.71875 13.847656 L 106.71875 14.398438 L 107.234375 14.398438 L 107.234375 11.15625 L 106.71875 11.15625 L 106.71875 11.695312 C 106.457031 11.3125 105.988281 11.089844 105.53125 11.089844 C 104.617188 11.089844 103.886719 11.808594 103.886719 12.78125 C 103.886719 13.742188 104.628906 14.464844 105.53125 14.464844 Z M 105.582031 13.976562 C 104.9375 13.976562 104.417969 13.445312 104.417969 12.773438 C 104.417969 12.109375 104.9375 11.570312 105.582031 11.570312 C 106.242188 11.570312 106.753906 12.109375 106.753906 12.773438 C 106.753906 13.445312 106.242188 13.976562 105.582031 13.976562 Z M 108.996094 15.71875 C 109.4375 15.71875 109.800781 15.484375 109.800781 15.152344 C 109.800781 14.890625 109.546875 14.703125 109.148438 14.707031 L 109.148438 14.460938 C 109.960938 14.414062 110.296875 13.871094 110.296875 13.457031 C 110.296875 12.796875 109.710938 12.648438 109.191406 12.515625 C 108.734375 12.398438 108.359375 12.335938 108.359375 12.015625 C 108.359375 11.75 108.585938 11.53125 109.023438 11.53125 C 109.375 11.53125 109.640625 11.671875 109.839844 11.910156 L 110.25 11.621094 C 109.992188 11.285156 109.546875 11.082031 109.023438 11.082031 C 108.292969 11.082031 107.835938 11.53125 107.835938 12.027344 C 107.835938 12.664062 108.394531 12.828125 108.921875 12.960938 C 109.359375 13.0625 109.777344 13.128906 109.777344 13.460938 C 109.777344 13.75 109.539062 14 109.058594 14 C 108.664062 14 108.339844 13.804688 108.132812 13.5 L 107.6875 13.792969 C 107.929688 14.148438 108.300781 14.382812 108.769531 14.441406 L 108.769531 14.980469 L 109.003906 14.980469 C 109.253906 14.980469 109.378906 15.039062 109.378906 15.167969 C 109.378906 15.296875 109.21875 15.382812 109.023438 15.382812 C 108.808594 15.382812 108.691406 15.300781 108.558594 15.191406 L 108.207031 15.40625 C 108.40625 15.589844 108.667969 15.71875 108.996094 15.71875 Z M 112.398438 14.464844 C 112.621094 14.464844 112.84375 14.410156 113.058594 14.304688 C 113.277344 14.199219 113.457031 14.042969 113.582031 13.847656 L 113.582031 14.398438 L 114.101562 14.398438 L 114.101562 11.15625 L 113.582031 11.15625 L 113.582031 11.695312 C 113.324219 11.3125 112.855469 11.089844 112.398438 11.089844 C 111.480469 11.089844 110.753906 11.808594 110.753906 12.78125 C 110.753906 13.742188 111.492188 14.464844 112.398438 14.464844 Z M 112.445312 13.976562 C 111.800781 13.976562 111.28125 13.445312 111.28125 12.773438 C 111.28125 12.109375 111.800781 11.570312 112.445312 11.570312 C 113.109375 11.570312 113.621094 12.109375 113.621094 12.773438 C 113.621094 13.445312 113.109375 13.976562 112.445312 13.976562 Z M 116.324219 14.464844 C 116.546875 14.464844 116.769531 14.410156 116.984375 14.304688 C 117.203125 14.199219 117.382812 14.042969 117.507812 13.847656 L 117.507812 14.398438 L 118.019531 14.398438 L 118.019531 10.296875 L 117.503906 10.296875 L 117.503906 11.6875 C 117.242188 11.304688 116.769531 11.089844 116.324219 11.089844 C 115.40625 11.089844 114.679688 11.808594 114.679688 12.78125 C 114.679688 13.742188 115.417969 14.464844 116.324219 14.464844 Z M 116.371094 13.976562 C 115.726562 13.976562 115.207031 13.445312 115.207031 12.773438 C 115.207031 12.109375 115.726562 11.570312 116.371094 11.570312 C 117.035156 11.570312 117.546875 12.109375 117.546875 12.773438 C 117.546875 13.445312 117.035156 13.976562 116.371094 13.976562 Z M 120.242188 14.464844 C 120.46875 14.464844 120.691406 14.410156 120.90625 14.304688 C 121.125 14.199219 121.300781 14.042969 121.429688 13.847656 L 121.429688 14.398438 L 121.945312 14.398438 L 121.945312 11.15625 L 121.429688 11.15625 L 121.429688 11.695312 C 121.167969 11.3125 120.699219 11.089844 120.242188 11.089844 C 119.328125 11.089844 118.601562 11.808594 118.601562 12.78125 C 118.601562 13.742188 119.339844 14.464844 120.242188 14.464844 Z M 120.292969 13.976562 C 119.648438 13.976562 119.128906 13.445312 119.128906 12.773438 C 119.128906 12.109375 119.648438 11.570312 120.292969 11.570312 C 120.953125 11.570312 121.46875 12.109375 121.46875 12.773438 C 121.46875 13.445312 120.953125 13.976562 120.292969 13.976562 Z M 122.6875 14.398438 L 123.210938 14.398438 L 123.210938 12.601562 C 123.210938 12 123.632812 11.5625 124.195312 11.5625 C 124.832031 11.5625 125.140625 11.953125 125.140625 12.582031 L 125.140625 14.398438 L 125.667969 14.398438 L 125.667969 12.558594 C 125.667969 11.644531 125.140625 11.089844 124.296875 11.089844 C 123.8125 11.089844 123.425781 11.316406 123.203125 11.65625 L 123.203125 11.15625 L 122.6875 11.15625 Z M 126.371094 14.398438 L 126.898438 14.398438 L 126.898438 10.296875 L 126.371094 10.296875 Z M 129.125 14.464844 C 129.351562 14.464844 129.574219 14.410156 129.789062 14.304688 C 130.007812 14.199219 130.183594 14.042969 130.3125 13.847656 L 130.3125 14.398438 L 130.832031 14.398438 L 130.832031 11.15625 L 130.3125 11.15625 L 130.3125 11.695312 C 130.054688 11.3125 129.585938 11.089844 129.125 11.089844 C 128.210938 11.089844 127.484375 11.808594 127.484375 12.78125 C 127.484375 13.742188 128.222656 14.464844 129.125 14.464844 Z M 129.175781 13.976562 C 128.53125 13.976562 128.011719 13.445312 128.011719 12.773438 C 128.011719 12.109375 128.53125 11.570312 129.175781 11.570312 C 129.839844 11.570312 130.351562 12.109375 130.351562 12.773438 C 130.351562 13.445312 129.839844 13.976562 129.175781 13.976562 Z M 131.570312 14.398438 L 132.097656 14.398438 L 132.097656 13.507812 C 132.082031 13.066406 132.09375 12.605469 132.09375 12.574219 C 132.09375 11.9375 132.386719 11.671875 132.820312 11.671875 C 133.085938 11.671875 133.183594 11.730469 133.3125 11.816406 L 133.53125 11.320312 C 133.371094 11.234375 133.183594 11.15625 132.902344 11.15625 C 132.515625 11.15625 132.246094 11.3125 132.085938 11.628906 L 132.085938 11.160156 L 131.570312 11.160156 Z M 133.972656 14.398438 L 134.503906 14.398438 L 134.503906 11.15625 L 133.972656 11.15625 Z M 133.972656 14.398438 "/>
</g>
</svg>
