<?xml version="1.0" encoding="utf-8"?>
<!-- Generator: Adobe Illustrator 28.1.0, SVG Export Plug-In . SVG Version: 6.00 Build 0)  -->
<svg version="1.1" id="Layer_1" xmlns="http://www.w3.org/2000/svg" xmlns:xlink="http://www.w3.org/1999/xlink" x="0px" y="0px"
	 viewBox="0 0 67.2 18.5" style="enable-background:new 0 0 67.2 18.5;" xml:space="preserve">
<style type="text/css">
	.st0{fill:#2D4D9C;}
	.st1{fill:#FFFFFF;}
	.st2{enable-background:new    ;}
</style>
<g>
	<g>
		<path class="st0" d="M11.8,4.3c0,0,0.2-1.4-1.5-2.2c0,0.1,0.5,0.9,0.4,1.1c-0.1,0-3.3-2.2-6.2,0.3c0.2-0.1,3.8-1.6,5.7,0.5
			C10.3,3.9,11.8,4.3,11.8,4.3z"/>
		<path class="st0" d="M6,3.6c0,0-2.2,1.2-2.8,2.9C3.4,6.5,4.2,6,5,6c0,0.1-2.4,3.7,0.6,6.7c-0.2,0-3.3-0.4-1.9-5.8
			c0,0-1.2,0.7-1.3,1.2C2.4,8.1,2.2,4.2,6,3.6z"/>
		<path class="st0" d="M5.8,9c0,0,0.5,3,1.9,3.5c0.2,0.1,0.3,0.1,0.5,0.2c0.7,0.4,2.1,1.5,1.2,3.4c0-0.1,0.1-1.7-1.9-2.6
			c-0.3-0.1-0.6-0.3-0.8-0.5C6,12.4,5.1,11.1,5.8,9z"/>
		<path class="st0" d="M9,8.2c0,0-0.3,0.6,0.3,1.3c0.2,0.2,0.3,0.5,0.3,0.8c0,0.4-0.1,1.1-0.4,1.5c0,0-1-2.1-2.4-2.7
			C6.5,8.9,6.3,8.8,6.1,8.6c-0.5-0.4-1.1-1.4-0.7-3c0,0,0.3,2.3,1.2,2.5c0-0.1-0.9-2,1.6-2.8c0,0,0,0.3,0,0.3S6.4,6.4,7.1,7.8
			c0,0,1.3,1.8,1.5,1.8C8.7,9.6,8.5,8.3,9,8.2z"/>
		<g>
			<path class="st0" d="M13.1,13.4c0,0,0.4-1.9-1.1-3.1c0,0-2.3-1.7-2.4-1.8c0,0-1.2-0.9-0.9-2.2c0-0.1,0.3-1.1,1.6-1.4
				c0,0-0.3-0.2-0.6-0.1c0.1,0,0.6-0.2,1.5,0c0,0,0-0.2-0.1-0.2c-0.1,0,1,0,1.4,0.5c0,0-0.4-0.1-0.5-0.1c0,0,0.2,0.3,1.5,0.9
				c0.1,0,0.7,0.3,0.9,0.6c0,0.1,0,0.1,0,0.1s-0.4-0.2-0.6,0.1c-0.1,0.1-0.3,0.2-0.1,0.3c0,0,0.5,0.1,0.5,0.3c0,0,0.1,1-1.2,0.8
				c0,0-0.7-0.1-0.7,0.5l0.1-0.1c0,0,0.4,0.4,0.9,0c0,0,0.5-0.5,0.7-0.3c0,0,0.3,0.3,0.1,1L14,8.9c0,0-0.4,0.4-1.2,0.1
				c0,0-0.9-0.2-0.6-1.1c0,0,0.2-0.4,0.2-0.4s-0.1,0-0.2,0.1c0,0-0.2,0.2-0.9-0.2c-0.7-0.3-1.6-0.9-1-1.9c0,0-1.2,0.5-0.3,2
				c0,0,0.6,0.7,1.1,1c0.1,0,2.2,1.4,2.2,2.8C13.4,11.3,13.6,12.3,13.1,13.4z"/>
			<path class="st1" d="M11.2,6.2c0,0,0.4-0.4,0.7-0.5L12,5.8c0,0-0.2,0.2,0.5,0.6c0,0-0.2,0-0.5-0.2C12,6.2,11.4,6.3,11.2,6.2z"/>
		</g>
	</g>
	<g class="st2">
		<path class="st0" d="M19.5,10.8c-0.3-0.2-0.5-0.4-0.7-0.7c-0.2-0.3-0.3-0.6-0.3-1c0-0.6,0.2-1.1,0.7-1.4c0.5-0.3,1.1-0.5,2-0.5
			h1.1V7c0-0.4-0.1-0.7-0.3-0.9c-0.2-0.2-0.5-0.3-0.9-0.3c-0.4,0-0.7,0.1-1,0.2c-0.3,0.1-0.6,0.3-0.8,0.6l-0.6-0.7
			c0.3-0.3,0.6-0.6,1-0.8s0.9-0.3,1.3-0.3c0.8,0,1.4,0.2,1.8,0.6c0.4,0.4,0.6,0.9,0.6,1.6v2.8c0,0.4,0,0.8,0.1,1.2h-1
			c-0.1-0.2-0.1-0.5-0.2-0.8h0c-0.5,0.6-1.1,0.9-1.9,0.9C20.1,11,19.8,10.9,19.5,10.8z M21.8,9.7c0.3-0.2,0.4-0.5,0.4-0.9V8.1h-1.2
			c-0.5,0-0.8,0.1-1.1,0.3s-0.4,0.4-0.4,0.8c0,0.3,0.1,0.5,0.3,0.7c0.2,0.2,0.5,0.3,0.8,0.3C21.2,10.1,21.5,10,21.8,9.7z"/>
		<path class="st0" d="M25.7,10.8c-0.3-0.2-0.5-0.4-0.7-0.7c-0.2-0.3-0.3-0.6-0.3-1c0-0.6,0.2-1.1,0.7-1.4c0.5-0.3,1.1-0.5,2-0.5
			h1.1V7c0-0.4-0.1-0.7-0.3-0.9c-0.2-0.2-0.5-0.3-0.9-0.3c-0.4,0-0.7,0.1-1,0.2c-0.3,0.1-0.6,0.3-0.8,0.6l-0.6-0.7
			c0.3-0.3,0.6-0.6,1-0.8s0.9-0.3,1.3-0.3C28,4.8,28.6,5,29,5.3c0.4,0.4,0.6,0.9,0.6,1.6v2.8c0,0.4,0,0.8,0.1,1.2h-1
			c-0.1-0.2-0.1-0.5-0.2-0.8h0c-0.5,0.6-1.1,0.9-1.9,0.9C26.3,11,26,10.9,25.7,10.8z M28,9.7c0.3-0.2,0.4-0.5,0.4-0.9V8.1h-1.2
			c-0.5,0-0.8,0.1-1.1,0.3s-0.4,0.4-0.4,0.8c0,0.3,0.1,0.5,0.3,0.7c0.2,0.2,0.5,0.3,0.8,0.3C27.4,10.1,27.7,10,28,9.7z"/>
		<path class="st0" d="M34.5,10.7c-0.4-0.2-0.6-0.4-0.8-0.8l0.8-0.5c0.1,0.2,0.3,0.4,0.6,0.5c0.2,0.1,0.5,0.2,0.8,0.2
			c0.3,0,0.6-0.1,0.8-0.3c0.2-0.2,0.3-0.4,0.3-0.7c0-0.2-0.1-0.4-0.2-0.5c-0.2-0.1-0.5-0.3-0.9-0.4c-0.7-0.3-1.2-0.5-1.5-0.8
			s-0.4-0.6-0.4-1c0-0.5,0.2-0.9,0.6-1.1c0.4-0.3,0.9-0.4,1.5-0.4c0.4,0,0.8,0.1,1.1,0.3c0.3,0.2,0.6,0.4,0.8,0.7l-0.7,0.5
			c-0.1-0.2-0.3-0.3-0.5-0.4c-0.2-0.1-0.4-0.1-0.7-0.1c-0.3,0-0.5,0.1-0.7,0.2S35,6.1,35,6.3c0,0.2,0.1,0.4,0.3,0.5s0.5,0.3,1,0.5
			c0.6,0.2,1.1,0.5,1.3,0.8c0.3,0.3,0.4,0.6,0.4,1c0,0.6-0.2,1-0.6,1.4c-0.4,0.3-1,0.5-1.6,0.5C35.3,11,34.9,10.9,34.5,10.7z"/>
		<path class="st0" d="M40.1,10.5c-0.3-0.3-0.5-0.8-0.5-1.4V5.8h-1.1V4.9h1.1V3.3L40.8,3h0v1.9h1.7v0.9h-1.7v3.1
			c0,0.4,0.1,0.7,0.2,0.9c0.2,0.2,0.4,0.3,0.7,0.3s0.6,0,0.8-0.1l0.1,0.9C42.4,10.9,42,11,41.4,11C40.8,11,40.4,10.8,40.1,10.5z"/>
		<path class="st0" d="M44.3,10.3c-0.4-0.5-0.5-1.1-0.5-2V4.9H45v3.4c0,0.6,0.1,1,0.3,1.3c0.2,0.3,0.5,0.4,0.9,0.4
			c0.5,0,0.9-0.2,1.2-0.5c0.3-0.4,0.5-0.8,0.5-1.4V4.9H49v4.6c0,0.4,0,0.9,0.1,1.4H48c-0.1-0.3-0.1-0.7-0.1-1.1h0
			c-0.2,0.4-0.4,0.7-0.8,0.9c-0.4,0.2-0.8,0.3-1.2,0.3C45.2,11,44.7,10.8,44.3,10.3z"/>
		<path class="st0" d="M50.8,10.1c-0.4-0.6-0.7-1.4-0.7-2.4c0-0.6,0.1-1.1,0.3-1.6c0.2-0.5,0.5-0.8,0.9-1c0.4-0.2,0.8-0.4,1.3-0.4
			c0.7,0,1.3,0.3,1.7,0.9h0V2h1.2v7.4c0,0.8,0,1.3,0,1.5h-1.1c0-0.2,0-0.5,0-0.9h0c-0.2,0.3-0.4,0.5-0.8,0.7
			C53.4,10.9,53,11,52.6,11C51.9,11,51.2,10.7,50.8,10.1z M54,9.6c0.3-0.3,0.4-0.7,0.4-1.2V7.4c0-0.5-0.1-0.9-0.4-1.2
			c-0.3-0.3-0.7-0.5-1.1-0.5c-0.5,0-0.9,0.2-1.1,0.6c-0.3,0.4-0.4,0.9-0.4,1.6c0,0.7,0.1,1.3,0.4,1.7c0.3,0.4,0.6,0.6,1.1,0.6
			C53.3,10.1,53.7,9.9,54,9.6z"/>
		<path class="st0" d="M57.2,3.8C57.1,3.6,57,3.5,57,3.2c0-0.2,0.1-0.4,0.2-0.6c0.1-0.1,0.3-0.2,0.6-0.2s0.4,0.1,0.6,0.2
			c0.1,0.1,0.2,0.3,0.2,0.6c0,0.2-0.1,0.4-0.2,0.6C58.3,3.9,58.1,4,57.8,4S57.4,3.9,57.2,3.8z M57.2,4.9h1.2v6h-1.2V4.9z"/>
		<path class="st0" d="M60.5,10.2c-0.5-0.6-0.8-1.3-0.8-2.3s0.3-1.7,0.8-2.3c0.5-0.6,1.2-0.8,2.2-0.8c0.9,0,1.6,0.3,2.2,0.8
			c0.5,0.6,0.8,1.3,0.8,2.3s-0.3,1.7-0.8,2.3c-0.5,0.6-1.3,0.8-2.2,0.8C61.8,11,61.1,10.7,60.5,10.2z M64,9.5
			c0.3-0.4,0.5-0.9,0.5-1.6S64.3,6.7,64,6.3c-0.3-0.4-0.8-0.6-1.3-0.6c-0.6,0-1,0.2-1.3,0.6s-0.5,0.9-0.5,1.6s0.2,1.2,0.5,1.6
			c0.3,0.4,0.7,0.6,1.3,0.6C63.3,10.1,63.7,9.9,64,9.5z"/>
	</g>
</g>
</svg>
