<svg xmlns="http://www.w3.org/2000/svg" xmlns:xlink="http://www.w3.org/1999/xlink" width="500" zoomAndPan="magnify" viewBox="0 0 375 374.999991" height="500" preserveAspectRatio="xMidYMid meet" version="1.0"><defs><g/></defs><g fill="#000000" fill-opacity="1"><g transform="translate(4.898442, 213.918809)"><g><path d="M 38.15625 0 L 9.078125 0 C 7.742188 0 6.523438 -0.320312 5.421875 -0.96875 C 4.316406 -1.625 3.4375 -2.503906 2.78125 -3.609375 C 2.132812 -4.710938 1.8125 -5.929688 1.8125 -7.265625 L 1.8125 -29.0625 C 1.8125 -30.394531 2.132812 -31.613281 2.78125 -32.71875 C 3.4375 -33.832031 4.316406 -34.710938 5.421875 -35.359375 C 6.523438 -36.015625 7.742188 -36.34375 9.078125 -36.34375 L 38.15625 -36.34375 L 38.15625 -29.0625 L 9.078125 -29.0625 L 9.078125 -7.265625 L 38.15625 -7.265625 Z M 38.15625 0 "/></g></g></g><g fill="#7ed957" fill-opacity="1"><g transform="translate(44.859377, 213.918809)"><g><path d="M 30.890625 0 L 9.078125 0 C 7.742188 0 6.523438 -0.320312 5.421875 -0.96875 C 4.316406 -1.625 3.4375 -2.503906 2.78125 -3.609375 C 2.132812 -4.710938 1.8125 -5.929688 1.8125 -7.265625 L 1.8125 -29.0625 C 1.8125 -30.394531 2.132812 -31.613281 2.78125 -32.71875 C 3.4375 -33.832031 4.316406 -34.710938 5.421875 -35.359375 C 6.523438 -36.015625 7.742188 -36.34375 9.078125 -36.34375 L 30.890625 -36.34375 C 32.222656 -36.34375 33.441406 -36.015625 34.546875 -35.359375 C 35.648438 -34.710938 36.523438 -33.832031 37.171875 -32.71875 C 37.828125 -31.613281 38.15625 -30.394531 38.15625 -29.0625 L 38.15625 -7.265625 C 38.15625 -5.960938 37.828125 -4.757812 37.171875 -3.65625 C 36.523438 -2.550781 35.65625 -1.664062 34.5625 -1 C 33.476562 -0.332031 32.253906 0 30.890625 0 Z M 9.078125 -29.0625 L 9.078125 -7.265625 L 30.890625 -7.265625 L 30.890625 -29.0625 Z M 9.078125 -29.0625 "/></g></g></g><g fill="#7ed957" fill-opacity="1"><g transform="translate(84.820311, 213.918809)"><g><path d="M 30.890625 0 L 1.8125 0 L 1.8125 -36.34375 L 30.890625 -36.34375 C 32.222656 -36.34375 33.441406 -36.015625 34.546875 -35.359375 C 35.648438 -34.710938 36.523438 -33.832031 37.171875 -32.71875 C 37.828125 -31.613281 38.15625 -30.394531 38.15625 -29.0625 L 38.15625 -7.265625 C 38.15625 -5.929688 37.828125 -4.710938 37.171875 -3.609375 C 36.523438 -2.503906 35.648438 -1.625 34.546875 -0.96875 C 33.441406 -0.320312 32.222656 0 30.890625 0 Z M 9.078125 -29.0625 L 9.078125 -7.265625 L 30.890625 -7.265625 L 30.890625 -29.0625 Z M 9.078125 -29.0625 "/></g></g></g><g fill="#7ed957" fill-opacity="1"><g transform="translate(124.781246, 213.918809)"><g><path d="M 38.15625 -36.34375 L 38.15625 -29.0625 L 9.078125 -29.0625 L 9.078125 -21.796875 L 38.15625 -21.796875 L 38.15625 -14.53125 L 9.078125 -14.53125 L 9.078125 -7.265625 L 38.15625 -7.265625 L 38.15625 0 L 9.078125 0 C 7.742188 0 6.523438 -0.320312 5.421875 -0.96875 C 4.316406 -1.625 3.4375 -2.503906 2.78125 -3.609375 C 2.132812 -4.710938 1.8125 -5.929688 1.8125 -7.265625 L 1.8125 -29.0625 C 1.8125 -30.394531 2.132812 -31.613281 2.78125 -32.71875 C 3.4375 -33.832031 4.316406 -34.710938 5.421875 -35.359375 C 6.523438 -36.015625 7.742188 -36.34375 9.078125 -36.34375 Z M 38.15625 -36.34375 "/></g></g></g><g fill="#7ed957" fill-opacity="1"><g transform="translate(213.844752, 213.921329)"><g><path d="M 38.125 0 L 9.078125 0 C 7.742188 0 6.523438 -0.320312 5.421875 -0.96875 C 4.316406 -1.625 3.4375 -2.503906 2.78125 -3.609375 C 2.132812 -4.710938 1.8125 -5.929688 1.8125 -7.265625 L 1.8125 -29.046875 C 1.8125 -30.378906 2.132812 -31.597656 2.78125 -32.703125 C 3.4375 -33.804688 4.316406 -34.679688 5.421875 -35.328125 C 6.523438 -35.984375 7.742188 -36.3125 9.078125 -36.3125 L 38.125 -36.3125 L 38.125 -29.046875 L 9.078125 -29.046875 L 9.078125 -7.265625 L 38.125 -7.265625 Z M 38.125 0 "/></g></g></g><g fill="#000000" fill-opacity="1"><g transform="translate(253.793968, 213.921329)"><g><path d="M 9.078125 -36.3125 L 30.859375 -36.3125 C 32.191406 -36.3125 33.410156 -35.984375 34.515625 -35.328125 C 35.617188 -34.679688 36.492188 -33.804688 37.140625 -32.703125 C 37.796875 -31.597656 38.125 -30.378906 38.125 -29.046875 L 38.125 0 L 30.859375 0 L 30.859375 -14.53125 L 9.078125 -14.53125 L 9.078125 0 L 1.8125 0 L 1.8125 -29.046875 C 1.8125 -30.378906 2.132812 -31.597656 2.78125 -32.703125 C 3.4375 -33.804688 4.316406 -34.679688 5.421875 -35.328125 C 6.523438 -35.984375 7.742188 -36.3125 9.078125 -36.3125 Z M 9.078125 -29.046875 L 9.078125 -21.78125 L 30.859375 -21.78125 L 30.859375 -29.046875 Z M 9.078125 -29.046875 "/></g></g></g><g fill="#000000" fill-opacity="1"><g transform="translate(293.734292, 213.921329)"><g><path d="M 38.125 -29.046875 L 38.125 -21.78125 C 38.125 -20.457031 37.796875 -19.242188 37.140625 -18.140625 C 36.492188 -17.035156 35.617188 -16.15625 34.515625 -15.5 C 33.410156 -14.851562 32.191406 -14.53125 30.859375 -14.53125 L 23.609375 -14.53125 L 30.859375 -7.265625 L 38.125 -7.265625 L 38.125 0 L 29.40625 0 C 28.382812 0 27.507812 -0.363281 26.78125 -1.09375 L 13.34375 -14.53125 L 9.078125 -14.53125 L 9.078125 0 L 1.8125 0 L 1.8125 -36.3125 L 30.859375 -36.3125 C 32.191406 -36.3125 33.410156 -35.984375 34.515625 -35.328125 C 35.617188 -34.679688 36.492188 -33.804688 37.140625 -32.703125 C 37.796875 -31.597656 38.125 -30.378906 38.125 -29.046875 Z M 30.859375 -29.046875 L 9.078125 -29.046875 L 9.078125 -21.78125 L 30.859375 -21.78125 Z M 30.859375 -29.046875 "/></g></g></g><g fill="#000000" fill-opacity="1"><g transform="translate(333.674617, 213.921329)"><g><path d="M 38.125 -36.3125 L 38.125 -29.046875 L 9.078125 -29.046875 L 9.078125 -21.78125 L 38.125 -21.78125 L 38.125 -14.53125 L 9.078125 -14.53125 L 9.078125 -7.265625 L 38.125 -7.265625 L 38.125 0 L 9.078125 0 C 7.742188 0 6.523438 -0.320312 5.421875 -0.96875 C 4.316406 -1.625 3.4375 -2.503906 2.78125 -3.609375 C 2.132812 -4.710938 1.8125 -5.929688 1.8125 -7.265625 L 1.8125 -29.046875 C 1.8125 -30.378906 2.132812 -31.597656 2.78125 -32.703125 C 3.4375 -33.804688 4.316406 -34.679688 5.421875 -35.328125 C 6.523438 -35.984375 7.742188 -36.3125 9.078125 -36.3125 Z M 38.125 -36.3125 "/></g></g></g><g fill="#000000" fill-opacity="1"><g transform="translate(179.085022, 210.301055)"><g><path d="M 10.484375 0.375 C 8.628906 0.375 7.003906 0.0546875 5.609375 -0.578125 C 4.222656 -1.210938 3.148438 -2.113281 2.390625 -3.28125 C 1.640625 -4.457031 1.265625 -5.832031 1.265625 -7.40625 C 1.265625 -9.082031 1.679688 -10.476562 2.515625 -11.59375 C 3.359375 -12.707031 4.628906 -13.625 6.328125 -14.34375 L 6.359375 -14.703125 C 5.585938 -15.648438 5.03125 -16.523438 4.6875 -17.328125 C 4.351562 -18.128906 4.1875 -19.007812 4.1875 -19.96875 C 4.1875 -21.144531 4.46875 -22.1875 5.03125 -23.09375 C 5.59375 -24.007812 6.40625 -24.722656 7.46875 -25.234375 C 8.539062 -25.742188 9.816406 -26 11.296875 -26 C 12.691406 -26 13.890625 -25.765625 14.890625 -25.296875 C 15.890625 -24.828125 16.648438 -24.175781 17.171875 -23.34375 C 17.703125 -22.519531 17.96875 -21.566406 17.96875 -20.484375 C 17.96875 -19.015625 17.53125 -17.742188 16.65625 -16.671875 C 15.789062 -15.597656 14.441406 -14.710938 12.609375 -14.015625 L 12.578125 -13.640625 L 17.296875 -7.375 C 17.578125 -7.988281 17.773438 -8.6875 17.890625 -9.46875 C 18.003906 -10.257812 18.0625 -11.15625 18.0625 -12.15625 L 18.046875 -13.046875 L 22.140625 -13.046875 C 22.140625 -9.441406 21.429688 -6.53125 20.015625 -4.3125 C 20.304688 -4.082031 20.5625 -3.921875 20.78125 -3.828125 C 21 -3.734375 21.238281 -3.6875 21.5 -3.6875 C 21.738281 -3.6875 21.929688 -3.695312 22.078125 -3.71875 C 22.234375 -3.738281 22.40625 -3.78125 22.59375 -3.84375 L 22.859375 -3.765625 L 23.46875 -0.25 C 23.25 -0.09375 22.9375 0.0234375 22.53125 0.109375 C 22.125 0.191406 21.664062 0.234375 21.15625 0.234375 C 20.300781 0.234375 19.550781 0.09375 18.90625 -0.1875 C 18.257812 -0.46875 17.644531 -0.898438 17.0625 -1.484375 L 16.6875 -1.484375 C 15.238281 -0.242188 13.171875 0.375 10.484375 0.375 Z M 10.46875 -16.421875 C 11.550781 -16.960938 12.335938 -17.507812 12.828125 -18.0625 C 13.316406 -18.625 13.5625 -19.316406 13.5625 -20.140625 C 13.5625 -20.867188 13.351562 -21.425781 12.9375 -21.8125 C 12.519531 -22.207031 11.953125 -22.40625 11.234375 -22.40625 C 10.515625 -22.40625 9.9375 -22.191406 9.5 -21.765625 C 9.0625 -21.347656 8.84375 -20.773438 8.84375 -20.046875 C 8.84375 -19.484375 8.957031 -18.953125 9.1875 -18.453125 C 9.414062 -17.953125 9.84375 -17.273438 10.46875 -16.421875 Z M 11.09375 -3.796875 C 12.21875 -3.796875 13.175781 -4.015625 13.96875 -4.453125 L 8.28125 -11.71875 C 7.601562 -11.269531 7.101562 -10.742188 6.78125 -10.140625 C 6.457031 -9.535156 6.296875 -8.828125 6.296875 -8.015625 C 6.296875 -7.171875 6.488281 -6.429688 6.875 -5.796875 C 7.269531 -5.160156 7.828125 -4.664062 8.546875 -4.3125 C 9.273438 -3.96875 10.125 -3.796875 11.09375 -3.796875 Z M 11.09375 -3.796875 "/></g></g></g></svg>