<svg xmlns="http://www.w3.org/2000/svg" xmlns:xlink="http://www.w3.org/1999/xlink" width="500" zoomAndPan="magnify" viewBox="0 0 375 374.999991" height="500" preserveAspectRatio="xMidYMid meet" version="1.0"><defs><g/></defs><rect x="-37.5" width="450" fill="#ffffff" y="-37.499999" height="449.999989" fill-opacity="1"/><rect x="-37.5" width="450" fill="#ffffff" y="-37.499999" height="449.999989" fill-opacity="1"/><g fill="#7ed957" fill-opacity="0.4"><g transform="translate(32.482378, 202.374186)"><g><path d="M 33.625 0 L 8 0 C 6.832031 0 5.757812 -0.285156 4.78125 -0.859375 C 3.8125 -1.429688 3.035156 -2.203125 2.453125 -3.171875 C 1.878906 -4.148438 1.59375 -5.226562 1.59375 -6.40625 L 1.59375 -25.625 C 1.59375 -26.789062 1.878906 -27.859375 2.453125 -28.828125 C 3.035156 -29.804688 3.8125 -30.582031 4.78125 -31.15625 C 5.757812 -31.738281 6.832031 -32.03125 8 -32.03125 L 33.625 -32.03125 L 33.625 -25.625 L 8 -25.625 L 8 -6.40625 L 33.625 -6.40625 Z M 33.625 0 "/></g></g></g><g fill="#000000" fill-opacity="1"><g transform="translate(30.71275, 200.604553)"><g><path d="M 33.625 0 L 8 0 C 6.832031 0 5.757812 -0.285156 4.78125 -0.859375 C 3.8125 -1.429688 3.035156 -2.203125 2.453125 -3.171875 C 1.878906 -4.148438 1.59375 -5.226562 1.59375 -6.40625 L 1.59375 -25.625 C 1.59375 -26.789062 1.878906 -27.859375 2.453125 -28.828125 C 3.035156 -29.804688 3.8125 -30.582031 4.78125 -31.15625 C 5.757812 -31.738281 6.832031 -32.03125 8 -32.03125 L 33.625 -32.03125 L 33.625 -25.625 L 8 -25.625 L 8 -6.40625 L 33.625 -6.40625 Z M 33.625 0 "/></g></g></g><g fill="#7ed957" fill-opacity="0.4"><g transform="translate(67.720657, 202.374186)"><g><path d="M 27.21875 0 L 8 0 C 6.832031 0 5.757812 -0.285156 4.78125 -0.859375 C 3.8125 -1.429688 3.035156 -2.203125 2.453125 -3.171875 C 1.878906 -4.148438 1.59375 -5.226562 1.59375 -6.40625 L 1.59375 -25.625 C 1.59375 -26.789062 1.878906 -27.859375 2.453125 -28.828125 C 3.035156 -29.804688 3.8125 -30.582031 4.78125 -31.15625 C 5.757812 -31.738281 6.832031 -32.03125 8 -32.03125 L 27.21875 -32.03125 C 28.394531 -32.03125 29.46875 -31.738281 30.4375 -31.15625 C 31.414062 -30.582031 32.191406 -29.804688 32.765625 -28.828125 C 33.335938 -27.859375 33.625 -26.789062 33.625 -25.625 L 33.625 -6.40625 C 33.625 -5.257812 33.335938 -4.195312 32.765625 -3.21875 C 32.191406 -2.25 31.421875 -1.46875 30.453125 -0.875 C 29.492188 -0.289062 28.414062 0 27.21875 0 Z M 8 -25.625 L 8 -6.40625 L 27.21875 -6.40625 L 27.21875 -25.625 Z M 8 -25.625 "/></g></g></g><g fill="#7ed957" fill-opacity="0.4"><g transform="translate(102.948155, 202.374186)"><g><path d="M 27.21875 0 L 1.59375 0 L 1.59375 -32.03125 L 27.21875 -32.03125 C 28.394531 -32.03125 29.46875 -31.738281 30.4375 -31.15625 C 31.414062 -30.582031 32.191406 -29.804688 32.765625 -28.828125 C 33.335938 -27.859375 33.625 -26.789062 33.625 -25.625 L 33.625 -6.40625 C 33.625 -5.226562 33.335938 -4.148438 32.765625 -3.171875 C 32.191406 -2.203125 31.414062 -1.429688 30.4375 -0.859375 C 29.46875 -0.285156 28.394531 0 27.21875 0 Z M 8 -25.625 L 8 -6.40625 L 27.21875 -6.40625 L 27.21875 -25.625 Z M 8 -25.625 "/></g></g></g><g fill="#7ed957" fill-opacity="0.4"><g transform="translate(138.175654, 202.374186)"><g><path d="M 33.625 -32.03125 L 33.625 -25.625 L 8 -25.625 L 8 -19.21875 L 33.625 -19.21875 L 33.625 -12.8125 L 8 -12.8125 L 8 -6.40625 L 33.625 -6.40625 L 33.625 0 L 8 0 C 6.832031 0 5.757812 -0.285156 4.78125 -0.859375 C 3.8125 -1.429688 3.035156 -2.203125 2.453125 -3.171875 C 1.878906 -4.148438 1.59375 -5.226562 1.59375 -6.40625 L 1.59375 -25.625 C 1.59375 -26.789062 1.878906 -27.859375 2.453125 -28.828125 C 3.035156 -29.804688 3.8125 -30.582031 4.78125 -31.15625 C 5.757812 -31.738281 6.832031 -32.03125 8 -32.03125 Z M 33.625 -32.03125 "/></g></g></g><g fill="#7ed957" fill-opacity="1"><g transform="translate(65.951028, 200.604553)"><g><path d="M 27.21875 0 L 8 0 C 6.832031 0 5.757812 -0.285156 4.78125 -0.859375 C 3.8125 -1.429688 3.035156 -2.203125 2.453125 -3.171875 C 1.878906 -4.148438 1.59375 -5.226562 1.59375 -6.40625 L 1.59375 -25.625 C 1.59375 -26.789062 1.878906 -27.859375 2.453125 -28.828125 C 3.035156 -29.804688 3.8125 -30.582031 4.78125 -31.15625 C 5.757812 -31.738281 6.832031 -32.03125 8 -32.03125 L 27.21875 -32.03125 C 28.394531 -32.03125 29.46875 -31.738281 30.4375 -31.15625 C 31.414062 -30.582031 32.191406 -29.804688 32.765625 -28.828125 C 33.335938 -27.859375 33.625 -26.789062 33.625 -25.625 L 33.625 -6.40625 C 33.625 -5.257812 33.335938 -4.195312 32.765625 -3.21875 C 32.191406 -2.25 31.421875 -1.46875 30.453125 -0.875 C 29.492188 -0.289062 28.414062 0 27.21875 0 Z M 8 -25.625 L 8 -6.40625 L 27.21875 -6.40625 L 27.21875 -25.625 Z M 8 -25.625 "/></g></g></g><g fill="#7ed957" fill-opacity="1"><g transform="translate(101.178527, 200.604553)"><g><path d="M 27.21875 0 L 1.59375 0 L 1.59375 -32.03125 L 27.21875 -32.03125 C 28.394531 -32.03125 29.46875 -31.738281 30.4375 -31.15625 C 31.414062 -30.582031 32.191406 -29.804688 32.765625 -28.828125 C 33.335938 -27.859375 33.625 -26.789062 33.625 -25.625 L 33.625 -6.40625 C 33.625 -5.226562 33.335938 -4.148438 32.765625 -3.171875 C 32.191406 -2.203125 31.414062 -1.429688 30.4375 -0.859375 C 29.46875 -0.285156 28.394531 0 27.21875 0 Z M 8 -25.625 L 8 -6.40625 L 27.21875 -6.40625 L 27.21875 -25.625 Z M 8 -25.625 "/></g></g></g><g fill="#7ed957" fill-opacity="1"><g transform="translate(136.406025, 200.604553)"><g><path d="M 33.625 -32.03125 L 33.625 -25.625 L 8 -25.625 L 8 -19.21875 L 33.625 -19.21875 L 33.625 -12.8125 L 8 -12.8125 L 8 -6.40625 L 33.625 -6.40625 L 33.625 0 L 8 0 C 6.832031 0 5.757812 -0.285156 4.78125 -0.859375 C 3.8125 -1.429688 3.035156 -2.203125 2.453125 -3.171875 C 1.878906 -4.148438 1.59375 -5.226562 1.59375 -6.40625 L 1.59375 -25.625 C 1.59375 -26.789062 1.878906 -27.859375 2.453125 -28.828125 C 3.035156 -29.804688 3.8125 -30.582031 4.78125 -31.15625 C 5.757812 -31.738281 6.832031 -32.03125 8 -32.03125 Z M 33.625 -32.03125 "/></g></g></g><g fill="#7ed957" fill-opacity="1"><g transform="translate(177.236537, 195.90094)"><g><path d="M 9 0.3125 C 7.40625 0.3125 6.007812 0.0390625 4.8125 -0.5 C 3.625 -1.039062 2.703125 -1.8125 2.046875 -2.8125 C 1.398438 -3.820312 1.078125 -5.003906 1.078125 -6.359375 C 1.078125 -7.796875 1.4375 -8.992188 2.15625 -9.953125 C 2.882812 -10.910156 3.976562 -11.695312 5.4375 -12.3125 L 5.46875 -12.625 C 4.800781 -13.4375 4.320312 -14.1875 4.03125 -14.875 C 3.738281 -15.5625 3.59375 -16.316406 3.59375 -17.140625 C 3.59375 -18.160156 3.832031 -19.0625 4.3125 -19.84375 C 4.800781 -20.625 5.503906 -21.234375 6.421875 -21.671875 C 7.335938 -22.109375 8.425781 -22.328125 9.6875 -22.328125 C 10.894531 -22.328125 11.925781 -22.125 12.78125 -21.71875 C 13.644531 -21.320312 14.300781 -20.765625 14.75 -20.046875 C 15.195312 -19.335938 15.421875 -18.515625 15.421875 -17.578125 C 15.421875 -16.328125 15.046875 -15.238281 14.296875 -14.3125 C 13.554688 -13.394531 12.398438 -12.632812 10.828125 -12.03125 L 10.796875 -11.71875 L 14.859375 -6.34375 C 15.097656 -6.863281 15.265625 -7.460938 15.359375 -8.140625 C 15.453125 -8.816406 15.5 -9.582031 15.5 -10.4375 L 15.484375 -11.203125 L 19.015625 -11.203125 C 19.015625 -8.109375 18.40625 -5.609375 17.1875 -3.703125 C 17.4375 -3.503906 17.65625 -3.363281 17.84375 -3.28125 C 18.03125 -3.195312 18.234375 -3.15625 18.453125 -3.15625 C 18.660156 -3.15625 18.828125 -3.164062 18.953125 -3.1875 C 19.085938 -3.207031 19.238281 -3.242188 19.40625 -3.296875 L 19.625 -3.234375 L 20.15625 -0.203125 C 19.96875 -0.078125 19.695312 0.0195312 19.34375 0.09375 C 18.988281 0.164062 18.597656 0.203125 18.171875 0.203125 C 17.429688 0.203125 16.785156 0.0820312 16.234375 -0.15625 C 15.679688 -0.40625 15.148438 -0.78125 14.640625 -1.28125 L 14.328125 -1.28125 C 13.085938 -0.21875 11.3125 0.3125 9 0.3125 Z M 8.984375 -14.109375 C 9.921875 -14.566406 10.597656 -15.035156 11.015625 -15.515625 C 11.441406 -15.992188 11.65625 -16.585938 11.65625 -17.296875 C 11.65625 -17.921875 11.472656 -18.398438 11.109375 -18.734375 C 10.742188 -19.066406 10.257812 -19.234375 9.65625 -19.234375 C 9.03125 -19.234375 8.53125 -19.050781 8.15625 -18.6875 C 7.78125 -18.332031 7.59375 -17.835938 7.59375 -17.203125 C 7.59375 -16.722656 7.691406 -16.269531 7.890625 -15.84375 C 8.085938 -15.414062 8.453125 -14.835938 8.984375 -14.109375 Z M 9.53125 -3.265625 C 10.488281 -3.265625 11.3125 -3.453125 12 -3.828125 L 7.109375 -10.0625 C 6.523438 -9.675781 6.09375 -9.222656 5.8125 -8.703125 C 5.539062 -8.191406 5.40625 -7.582031 5.40625 -6.875 C 5.40625 -6.15625 5.570312 -5.519531 5.90625 -4.96875 C 6.238281 -4.425781 6.71875 -4.003906 7.34375 -3.703125 C 7.96875 -3.410156 8.695312 -3.265625 9.53125 -3.265625 Z M 9.53125 -3.265625 "/></g></g></g><g fill="#7ed957" fill-opacity="0.4"><g transform="translate(205.118004, 202.374186)"><g><path d="M 33.625 0 L 8 0 C 6.832031 0 5.757812 -0.285156 4.78125 -0.859375 C 3.8125 -1.429688 3.035156 -2.203125 2.453125 -3.171875 C 1.878906 -4.148438 1.59375 -5.226562 1.59375 -6.40625 L 1.59375 -25.625 C 1.59375 -26.789062 1.878906 -27.859375 2.453125 -28.828125 C 3.035156 -29.804688 3.8125 -30.582031 4.78125 -31.15625 C 5.757812 -31.738281 6.832031 -32.03125 8 -32.03125 L 33.625 -32.03125 L 33.625 -25.625 L 8 -25.625 L 8 -6.40625 L 33.625 -6.40625 Z M 33.625 0 "/></g></g></g><g fill="#7ed957" fill-opacity="1"><g transform="translate(203.348369, 200.604553)"><g><path d="M 33.625 0 L 8 0 C 6.832031 0 5.757812 -0.285156 4.78125 -0.859375 C 3.8125 -1.429688 3.035156 -2.203125 2.453125 -3.171875 C 1.878906 -4.148438 1.59375 -5.226562 1.59375 -6.40625 L 1.59375 -25.625 C 1.59375 -26.789062 1.878906 -27.859375 2.453125 -28.828125 C 3.035156 -29.804688 3.8125 -30.582031 4.78125 -31.15625 C 5.757812 -31.738281 6.832031 -32.03125 8 -32.03125 L 33.625 -32.03125 L 33.625 -25.625 L 8 -25.625 L 8 -6.40625 L 33.625 -6.40625 Z M 33.625 0 "/></g></g></g><g fill="#7ed957" fill-opacity="0.4"><g transform="translate(240.356283, 202.374186)"><g><path d="M 8 -32.03125 L 27.21875 -32.03125 C 28.394531 -32.03125 29.46875 -31.738281 30.4375 -31.15625 C 31.414062 -30.582031 32.191406 -29.804688 32.765625 -28.828125 C 33.335938 -27.859375 33.625 -26.789062 33.625 -25.625 L 33.625 0 L 27.21875 0 L 27.21875 -12.8125 L 8 -12.8125 L 8 0 L 1.59375 0 L 1.59375 -25.625 C 1.59375 -26.789062 1.878906 -27.859375 2.453125 -28.828125 C 3.035156 -29.804688 3.8125 -30.582031 4.78125 -31.15625 C 5.757812 -31.738281 6.832031 -32.03125 8 -32.03125 Z M 8 -25.625 L 8 -19.21875 L 27.21875 -19.21875 L 27.21875 -25.625 Z M 8 -25.625 "/></g></g></g><g fill="#7ed957" fill-opacity="0.4"><g transform="translate(275.583782, 202.374186)"><g><path d="M 33.625 -25.625 L 33.625 -19.21875 C 33.625 -18.039062 33.335938 -16.960938 32.765625 -15.984375 C 32.191406 -15.015625 31.414062 -14.242188 30.4375 -13.671875 C 29.46875 -13.097656 28.394531 -12.8125 27.21875 -12.8125 L 20.8125 -12.8125 L 27.21875 -6.40625 L 33.625 -6.40625 L 33.625 0 L 25.9375 0 C 25.03125 0 24.257812 -0.316406 23.625 -0.953125 L 11.765625 -12.8125 L 8 -12.8125 L 8 0 L 1.59375 0 L 1.59375 -32.03125 L 27.21875 -32.03125 C 28.394531 -32.03125 29.46875 -31.738281 30.4375 -31.15625 C 31.414062 -30.582031 32.191406 -29.804688 32.765625 -28.828125 C 33.335938 -27.859375 33.625 -26.789062 33.625 -25.625 Z M 27.21875 -25.625 L 8 -25.625 L 8 -19.21875 L 27.21875 -19.21875 Z M 27.21875 -25.625 "/></g></g></g><g fill="#7ed957" fill-opacity="0.4"><g transform="translate(310.81128, 202.374186)"><g><path d="M 33.625 -32.03125 L 33.625 -25.625 L 8 -25.625 L 8 -19.21875 L 33.625 -19.21875 L 33.625 -12.8125 L 8 -12.8125 L 8 -6.40625 L 33.625 -6.40625 L 33.625 0 L 8 0 C 6.832031 0 5.757812 -0.285156 4.78125 -0.859375 C 3.8125 -1.429688 3.035156 -2.203125 2.453125 -3.171875 C 1.878906 -4.148438 1.59375 -5.226562 1.59375 -6.40625 L 1.59375 -25.625 C 1.59375 -26.789062 1.878906 -27.859375 2.453125 -28.828125 C 3.035156 -29.804688 3.8125 -30.582031 4.78125 -31.15625 C 5.757812 -31.738281 6.832031 -32.03125 8 -32.03125 Z M 33.625 -32.03125 "/></g></g></g><g fill="#000000" fill-opacity="1"><g transform="translate(238.586648, 200.604553)"><g><path d="M 8 -32.03125 L 27.21875 -32.03125 C 28.394531 -32.03125 29.46875 -31.738281 30.4375 -31.15625 C 31.414062 -30.582031 32.191406 -29.804688 32.765625 -28.828125 C 33.335938 -27.859375 33.625 -26.789062 33.625 -25.625 L 33.625 0 L 27.21875 0 L 27.21875 -12.8125 L 8 -12.8125 L 8 0 L 1.59375 0 L 1.59375 -25.625 C 1.59375 -26.789062 1.878906 -27.859375 2.453125 -28.828125 C 3.035156 -29.804688 3.8125 -30.582031 4.78125 -31.15625 C 5.757812 -31.738281 6.832031 -32.03125 8 -32.03125 Z M 8 -25.625 L 8 -19.21875 L 27.21875 -19.21875 L 27.21875 -25.625 Z M 8 -25.625 "/></g></g></g><g fill="#000000" fill-opacity="1"><g transform="translate(273.814146, 200.604553)"><g><path d="M 33.625 -25.625 L 33.625 -19.21875 C 33.625 -18.039062 33.335938 -16.960938 32.765625 -15.984375 C 32.191406 -15.015625 31.414062 -14.242188 30.4375 -13.671875 C 29.46875 -13.097656 28.394531 -12.8125 27.21875 -12.8125 L 20.8125 -12.8125 L 27.21875 -6.40625 L 33.625 -6.40625 L 33.625 0 L 25.9375 0 C 25.03125 0 24.257812 -0.316406 23.625 -0.953125 L 11.765625 -12.8125 L 8 -12.8125 L 8 0 L 1.59375 0 L 1.59375 -32.03125 L 27.21875 -32.03125 C 28.394531 -32.03125 29.46875 -31.738281 30.4375 -31.15625 C 31.414062 -30.582031 32.191406 -29.804688 32.765625 -28.828125 C 33.335938 -27.859375 33.625 -26.789062 33.625 -25.625 Z M 27.21875 -25.625 L 8 -25.625 L 8 -19.21875 L 27.21875 -19.21875 Z M 27.21875 -25.625 "/></g></g></g><g fill="#000000" fill-opacity="1"><g transform="translate(309.041645, 200.604553)"><g><path d="M 33.625 -32.03125 L 33.625 -25.625 L 8 -25.625 L 8 -19.21875 L 33.625 -19.21875 L 33.625 -12.8125 L 8 -12.8125 L 8 -6.40625 L 33.625 -6.40625 L 33.625 0 L 8 0 C 6.832031 0 5.757812 -0.285156 4.78125 -0.859375 C 3.8125 -1.429688 3.035156 -2.203125 2.453125 -3.171875 C 1.878906 -4.148438 1.59375 -5.226562 1.59375 -6.40625 L 1.59375 -25.625 C 1.59375 -26.789062 1.878906 -27.859375 2.453125 -28.828125 C 3.035156 -29.804688 3.8125 -30.582031 4.78125 -31.15625 C 5.757812 -31.738281 6.832031 -32.03125 8 -32.03125 Z M 33.625 -32.03125 "/></g></g></g></svg>