<?xml version="1.0" standalone="no"?>
<!DOCTYPE svg PUBLIC "-//W3C//DTD SVG 20010904//EN"
 "http://www.w3.org/TR/2001/REC-SVG-20010904/DTD/svg10.dtd">
<svg version="1.0" xmlns="http://www.w3.org/2000/svg"
 width="253.000000pt" height="133.000000pt" viewBox="0 0 253.000000 133.000000"
 preserveAspectRatio="xMidYMid meet">

<g transform="translate(0.000000,133.000000) scale(0.100000,-0.100000)"
fill="#000000" stroke="none">
<path d="M1918 1272 c-126 -31 -228 -59 -228 -62 1 -3 22 -21 48 -41 45 -34
48 -35 77 -20 22 11 63 15 145 15 96 0 124 -3 170 -22 85 -34 153 -80 146 -99
-5 -13 0 -14 39 -9 l45 7 -37 -75 c-20 -42 -43 -75 -50 -73 -6 1 -18 -6 -26
-17 -12 -17 -15 -15 -31 27 -17 45 -17 46 8 96 l26 50 -29 20 c-90 65 -189 88
-317 76 l-76 -7 -26 -45 c-15 -25 -45 -67 -67 -93 -49 -59 -327 -354 -338
-358 -4 -2 -19 23 -33 55 -125 286 -269 603 -274 603 -4 0 -137 -138 -296
-307 -159 -168 -391 -415 -517 -547 l-227 -241 154 -3 154 -2 208 90 c114 49
212 90 218 90 6 0 26 -39 45 -86 18 -47 39 -88 45 -90 7 -3 62 -3 123 -2 l111
3 -70 133 -71 132 -86 0 c-72 0 -106 -7 -211 -40 -68 -21 -126 -37 -128 -35
-5 4 428 465 437 465 4 0 72 -147 152 -327 80 -181 150 -328 156 -328 12 0
263 260 491 508 75 81 138 147 141 147 3 0 71 -149 150 -330 l145 -330 158 0
158 0 -10 23 c-6 12 -71 157 -144 322 -110 245 -132 302 -120 308 9 5 21 4 30
-4 12 -10 17 -8 29 7 11 15 12 21 2 28 -20 13 61 163 91 171 18 4 21 9 13 19
-6 7 -10 24 -9 37 3 20 -1 24 -26 24 -22 -1 -47 16 -110 74 -44 41 -92 85
-106 97 l-25 22 -227 -56z m466 -191 c3 -5 -1 -14 -8 -20 -16 -13 -32 2 -21
19 8 12 22 13 29 1z"/>
<path d="M875 620 l-59 -60 86 0 87 0 -26 58 c-14 31 -27 58 -28 59 0 1 -28
-24 -60 -57z"/>
<path d="M1734 569 c-16 -12 -42 -34 -57 -48 l-28 -26 71 -5 71 -5 -148 -89
c-142 -85 -213 -146 -213 -182 0 -12 60 -14 365 -14 201 0 365 2 365 6 0 14
-47 84 -60 90 -8 4 -91 10 -185 13 l-169 6 137 98 c75 54 137 102 137 105 0 4
-8 20 -18 35 -17 27 -20 28 -128 33 -102 4 -113 3 -140 -17z"/>
<path d="M723 173 c9 -2 25 -2 35 0 9 3 1 5 -18 5 -19 0 -27 -2 -17 -5z"/>
<path d="M271 154 c0 -11 3 -14 6 -6 3 7 2 16 -1 19 -3 4 -6 -2 -5 -13z"/>
<path d="M983 163 c9 -2 25 -2 35 0 9 3 1 5 -18 5 -19 0 -27 -2 -17 -5z"/>
<path d="M1443 163 c9 -2 23 -2 30 0 6 3 -1 5 -18 5 -16 0 -22 -2 -12 -5z"/>
<path d="M1268 143 c7 -3 16 -2 19 1 4 3 -2 6 -13 5 -11 0 -14 -3 -6 -6z"/>
<path d="M1895 137 c-10 -8 -15 -19 -12 -24 4 -6 0 -13 -8 -17 -8 -3 -15 -11
-15 -17 0 -8 5 -7 16 2 9 7 37 16 63 20 l46 6 -47 2 c-53 1 -62 14 -20 29 15
6 20 11 11 11 -8 1 -23 -5 -34 -12z"/>
<path d="M2187 143 c-12 -3 -17 -11 -14 -22 2 -11 -4 -23 -15 -30 -11 -7 -17
-15 -14 -18 3 -3 13 0 22 8 9 7 37 16 63 20 l46 6 -47 2 c-53 1 -62 14 -20 29
27 11 13 14 -21 5z"/>
<path d="M506 131 c-4 -5 3 -7 14 -4 23 6 26 13 6 13 -8 0 -17 -4 -20 -9z"/>
<path d="M796 131 c-4 -5 3 -7 14 -4 23 6 26 13 6 13 -8 0 -17 -4 -20 -9z"/>
<path d="M1158 133 c6 -2 18 -2 25 0 6 3 1 5 -13 5 -14 0 -19 -2 -12 -5z"/>
<path d="M1810 131 c0 -5 9 -7 20 -4 11 3 20 7 20 9 0 2 -9 4 -20 4 -11 0 -20
-4 -20 -9z"/>
<path d="M2351 124 c0 -11 3 -14 6 -6 3 7 2 16 -1 19 -3 4 -6 -2 -5 -13z"/>
<path d="M1741 104 c0 -11 3 -14 6 -6 3 7 2 16 -1 19 -3 4 -6 -2 -5 -13z"/>
<path d="M311 101 c-10 -6 1 -8 30 -4 24 3 46 7 48 9 10 9 -65 3 -78 -5z"/>
<path d="M1214 94 c-10 -8 -13 -12 -6 -9 7 4 34 10 60 15 l47 8 -41 1 c-23 1
-48 -6 -60 -15z"/>
<path d="M2363 90 c-18 -11 -33 -27 -33 -37 0 -15 1 -15 13 -1 6 9 30 25 52
37 28 14 34 20 20 21 -11 0 -35 -9 -52 -20z"/>
<path d="M1626 79 c-11 -11 -15 -19 -9 -19 12 0 38 28 32 34 -2 2 -13 -5 -23
-15z"/>
<path d="M568 73 c7 -3 16 -2 19 1 4 3 -2 6 -13 5 -11 0 -14 -3 -6 -6z"/>
<path d="M1285 70 c-19 -8 -19 -9 3 -9 12 -1 22 4 22 9 0 6 -1 10 -2 9 -2 0
-12 -4 -23 -9z"/>
<path d="M1731 64 c0 -11 3 -14 6 -6 3 7 2 16 -1 19 -3 4 -6 -2 -5 -13z"/>
<path d="M1945 70 c-19 -8 -19 -9 3 -9 12 -1 22 4 22 9 0 6 -1 10 -2 9 -2 0
-12 -4 -23 -9z"/>
<path d="M2056 65 c-3 -8 -1 -15 4 -15 6 0 10 7 10 15 0 8 -2 15 -4 15 -2 0
-6 -7 -10 -15z"/>
<path d="M2235 70 c-19 -8 -19 -9 3 -9 12 -1 22 4 22 9 0 6 -1 10 -2 9 -2 0
-12 -4 -23 -9z"/>
<path d="M368 63 c7 -3 16 -2 19 1 4 3 -2 6 -13 5 -11 0 -14 -3 -6 -6z"/>
<path d="M828 63 c6 -2 18 -2 25 0 6 3 1 5 -13 5 -14 0 -19 -2 -12 -5z"/>
<path d="M1028 63 c7 -3 16 -2 19 1 4 3 -2 6 -13 5 -11 0 -14 -3 -6 -6z"/>
<path d="M1488 63 c7 -3 16 -2 19 1 4 3 -2 6 -13 5 -11 0 -14 -3 -6 -6z"/>
<path d="M538 33 c6 -2 18 -2 25 0 6 3 1 5 -13 5 -14 0 -19 -2 -12 -5z"/>
</g>
</svg>
