<?xml version="1.0" encoding="utf-8"?>
<!-- Generator: Adobe Illustrator 28.1.0, SVG Export Plug-In . SVG Version: 6.00 Build 0)  -->
<svg version="1.1" id="Layer_1" xmlns="http://www.w3.org/2000/svg" xmlns:xlink="http://www.w3.org/1999/xlink" x="0px" y="0px"
	 viewBox="0 0 128.8 36.5" style="enable-background:new 0 0 128.8 36.5;" xml:space="preserve">
<style type="text/css">
	.st0{fill:#000002;}
</style>
<g id="logo_00000153696412867624973080000014376847699840811425_">
	<g id="icon_00000092437169133515244670000002376640586214231180_">
		<g id="bottom_00000148659961274445158760000018175951455170099363_">
			<path class="st0" d="M23.9,0l-1.7,9.8c-0.2,1.1-0.8,2-1.8,2.5l-4,2.3L19,0H23.9z"/>
		</g>
		<g id="up_00000057858431762013690870000017479987511783550851_">
			<path class="st0" d="M20.1,21.8l-2.6,14.7h-4.9l1.7-9.8c0.2-1.1,0.8-2,1.8-2.5L20.1,21.8z"/>
		</g>
		<g id="left_00000088850478651703252720000000485899333428336549_">
			<path class="st0" d="M34.6,13.4l-8.4,4.8l8.4,4.8c1.1,0.7,1.8,1.9,1.8,3.2v3.5l-12.6-7.3c-1.5-0.9-2.4-2.5-2.4-4.2
				s0.9-3.3,2.4-4.2l12.6-7.3v3.5C36.5,11.5,35.8,12.7,34.6,13.4z"/>
		</g>
		<g id="rught_00000159432113563199298120000002985925172176605367_">
			<path class="st0" d="M15.1,18.2c0,1.8-0.9,3.3-2.4,4.2L0,29.7v-3.5c0-1.3,0.7-2.5,1.8-3.2l8.4-4.8l-8.4-4.8
				C0.7,12.7,0,11.5,0,10.2V6.7L12.6,14C14.2,14.9,15.1,16.5,15.1,18.2z"/>
		</g>
	</g>
	<g id="text_00000132087528526000938190000002603964734841378442_">
		<path d="M49.6,20.8h3c0.4,1.6,1.6,2.3,4.1,2.3c1.9,0,3.1-0.6,3.1-1.6c0-1.2-1.3-1.4-3.7-1.9c-4-1-5.7-1.8-5.7-4.2
			c0-2.9,2.4-4.5,6-4.5c3.7,0,5.7,1.7,6.2,4.3h-3c-0.4-1.2-1.5-1.7-3.3-1.7c-1.9,0-3,0.6-3,1.6c0,0.9,0.9,1.1,3.4,1.7
			c3.9,0.9,6.1,1.6,6.1,4.4c0,3.1-2.7,4.5-6.1,4.5C52.8,25.7,50.1,23.9,49.6,20.8z"/>
		<path d="M64.4,18.3c0-4.3,3.1-7.5,7.4-7.5c4.6,0,7.5,3.6,7.2,8.2H67.4c0.2,2.6,2,4.1,4.4,4.1c1.7,0,3.1-0.7,3.8-2.1h3
			c-1.1,3.2-3.8,4.7-6.9,4.7C67.5,25.7,64.4,22.6,64.4,18.3z M75.9,16.7c-0.4-2-1.9-3.3-4.1-3.3c-2.2,0-3.7,1.4-4.2,3.3H75.9z"/>
		<path d="M80.9,18.2c0-4.3,3.2-7.4,7.4-7.4c3.4,0,6.4,2,7,5.5h-3c-0.5-1.8-2.1-2.8-4-2.8c-2.6,0-4.5,2-4.5,4.7
			c0,2.8,1.9,4.7,4.4,4.7c1.9,0,3.4-1,4-2.8h3c-0.7,3.5-3.7,5.5-7,5.5C84,25.7,80.9,22.5,80.9,18.2z"/>
		<path d="M111.8,18.2c0,4.3-3.2,7.4-7.4,7.4c-4.1,0-7.4-3.2-7.4-7.4c0-4.3,3.3-7.4,7.4-7.4C108.5,10.8,111.8,13.9,111.8,18.2z
			 M100,18.2c0,2.7,1.9,4.6,4.4,4.6c2.5,0,4.4-1.9,4.4-4.6c0-2.7-2-4.6-4.4-4.6S100,15.5,100,18.2z"/>
		<path d="M114.3,11.1h2.9v2.4c1.1-1.6,2.7-2.7,5-2.7c3.7,0,6.6,3.1,6.6,7.4s-2.8,7.4-6.6,7.4c-2.2,0-3.9-1.1-5-2.7v8.9h-2.9V11.1z
			 M125.9,18.2c0-2.7-1.8-4.6-4.3-4.6c-2.5,0-4.4,1.9-4.4,4.6c0,2.7,1.9,4.6,4.4,4.6C124.1,22.9,125.9,21,125.9,18.2z"/>
	</g>
</g>
<g>
</g>
<g>
</g>
<g>
</g>
<g>
</g>
<g>
</g>
<g>
</g>
</svg>
