<?xml version="1.0" encoding="utf-8"?>
<!-- Generator: Adobe Illustrator 28.1.0, SVG Export Plug-In . SVG Version: 6.00 Build 0)  -->
<svg version="1.1" id="Layer_1" xmlns="http://www.w3.org/2000/svg" xmlns:xlink="http://www.w3.org/1999/xlink" x="0px" y="0px"
	 viewBox="0 0 422.6 169.6" style="enable-background:new 0 0 422.6 169.6;" xml:space="preserve">
<style type="text/css">
	.st0{fill:#040911;}
	.st1{fill:#5A5E68;}
</style>
<g>
	<g id="logo">
		
			<image style="overflow:visible;" width="315" height="327" id="d_circle" xlink:href="9809E7BADC919DB.png"  transform="matrix(0.24 0 0 0.24 252.0653 32.415)">
		</image>
		<g id="de">
			<defs>
				<rect id="SVGID_1_" x="309.1" width="113.6" height="112.9"/>
			</defs>
			<clipPath id="SVGID_00000155835958893819785720000004954149141940370584_">
				<use xlink:href="#SVGID_1_"  style="overflow:visible;"/>
			</clipPath>
			<g style="clip-path:url(#SVGID_00000155835958893819785720000004954149141940370584_);">
				
					<image style="overflow:visible;" width="457" height="512" id="de_00000164473929223553222130000016870476541160841403_" xlink:href="9809E7BADC919DE.png"  transform="matrix(0.24 0 0 0.24 311.1053 -11.985)">
				</image>
			</g>
		</g>
		<g id="uco_00000108274899526485398140000005157219517364553358_">
			<path class="st0" d="M80.9,97v12.3c-13.6,1.9-21.5-0.9-24-11.9c-7,8.9-17,13.3-27.6,13.3c-17,0-29.2-12-29.2-31.4V34h14.8v44.5
				c0,12.6,6.9,19.2,18.7,19.2c12.3,0,20.8-10.6,20.8-23.4V34h14.8v53.4C69.2,95.9,72.6,97.9,80.9,97z"/>
			<path class="st0" d="M81.8,71.5c0-23.3,17.2-38.9,40-38.9c17.8,0,32.3,10.5,36.2,26.7h-13.9c-3.9-9.1-11.9-13.7-22.3-13.7
				c-13.9,0-24.8,10-24.8,25.9s10.8,26.2,25,26.2c10.6,0,18.4-5,22-14.7h14.4c-4.1,18.3-18.6,27.6-36.5,27.6
				C99,110.7,81.8,94.5,81.8,71.5z"/>
			<path class="st0" d="M165.3,71.4c0-23.4,17.3-38.7,40.4-38.7c23,0,40.6,15.3,40.6,38.7c0,23.6-17.8,39.3-40.8,39.3
				S165.3,94.8,165.3,71.4z M231.3,71.4c0-15.9-10.9-25.8-25.6-25.8c-14.5,0-25.5,9.8-25.5,25.8c0,16.2,10.6,26.4,25.5,26.4
				C220.5,97.8,231.3,87.8,231.3,71.4z"/>
		</g>
	</g>
	<g id="design_and_coding_school_00000096043430157294680300000018176426228438955423_">
		<g>
			<path class="st1" d="M56.8,149.2c0,5.1-3.4,9.6-9.5,9.6h-7.2v-19.2h7.2C53.3,139.6,56.8,144.1,56.8,149.2z M53.5,149.2
				c0-4-2.4-6.7-6.2-6.7h-4v13.4h4C51,155.9,53.5,153.2,53.5,149.2z"/>
			<path class="st1" d="M71.8,153.1h-9.8c0.4,2.2,2,3.4,4.6,3.4c1.4,0,2.9-0.3,4.2-0.9l0.6,2.4c-1.9,0.9-3.3,1.1-5,1.1
				c-4.5,0-7.4-2.7-7.4-6.9c0-4.1,2.7-6.9,6.9-6.9c3.7,0,6.1,2.3,6.1,5.8C72,151.7,71.9,152.4,71.8,153.1z M62.1,150.9h7.3
				c0-2.2-1.6-3-3.5-3C63.9,147.8,62.5,148.9,62.1,150.9z"/>
			<path class="st1" d="M74.2,154.7h3c0.2,1.2,1.3,1.8,2.8,1.8c1.8,0,2.8-0.5,2.8-1.4c0-0.9-0.7-1.4-3-1.7c-2.4-0.3-5.3-1.1-5.3-4.1
				c0-2.4,2.1-4,5.6-4c3.1,0,4.9,1.5,5.5,4.1h-2.9c-0.3-1-1.2-1.6-2.7-1.6c-1.8,0-2.5,0.6-2.5,1.4c0,1,0.7,1.3,3,1.7
				c2.9,0.5,5.4,1.4,5.4,4.1c0,2.6-2.2,4-5.8,4C76.6,159,74.5,157.6,74.2,154.7z"/>
			<path class="st1" d="M88.6,141.7c0-1.1,0.8-1.7,1.8-1.7c1,0,1.8,0.7,1.8,1.7s-0.8,1.7-1.8,1.7C89.5,143.4,88.6,142.7,88.6,141.7z
				 M89,145.6h3v13.2h-3V145.6z"/>
			<path class="st1" d="M108.4,146.6v12.2c0,3.8-2.5,6-6.5,6c-2.3,0-4.4-0.5-6.2-1.5l1-2.4c1.7,0.9,3.6,1.3,5.1,1.3
				c2.4,0,3.5-1.1,3.5-3.3v-1.1c-1.1,0.4-2.4,0.7-3.7,0.7c-3.8,0-6.6-2.5-6.6-6.6c0-4,3-6.5,7.5-6.5
				C104.7,145.3,106.7,145.8,108.4,146.6z M105.4,155.3v-6.9c-0.9-0.3-1.8-0.4-2.7-0.4c-2.7,0-4.5,1.4-4.5,3.9c0,2.9,1.8,4,4.1,4
				C103.3,155.9,104.2,155.7,105.4,155.3z"/>
			<path class="st1" d="M125.1,150.8v8h-3V151c0-2-1-3.1-3-3.1c-2.2,0-3.5,1.6-3.5,3.8v7h-3v-9.2c0-1.5-0.5-1.6-1.9-1.5v-2.6
				c2.4-0.4,4,0,4.5,1.9c1.3-1.5,2.9-2.1,4.8-2.1C123,145.3,125.1,147.5,125.1,150.8z"/>
			<path class="st1" d="M147.8,156.3v2.5c-2.3,0.4-4-0.2-4.3-1.9c-0.9,1.4-2.7,2.1-4.8,2.1c-2.9,0-4.8-1.7-4.8-4.1
				c0-3,2.5-4.3,5.5-4.3c1.1,0,2.4,0.2,3.4,0.5v-0.9c0-1.8-1.4-2.3-3.2-2.3c-1.3,0-2.8,0.3-4.4,1l-0.6-2.4c1.8-0.8,3.6-1.2,5.2-1.2
				c3.3,0,6,1.5,6,4.9v4.7C145.9,156,146.3,156.5,147.8,156.3z M142.9,153.5v-0.3c-1.1-0.3-2.1-0.4-3.2-0.4c-1.5,0-2.8,0.5-2.8,2
				c0,1.2,0.9,1.9,2.4,1.9C141.3,156.7,142.9,155.4,142.9,153.5z"/>
			<path class="st1" d="M163.2,150.8v8h-3V151c0-2-1-3.1-3-3.1c-2.2,0-3.5,1.6-3.5,3.8v7h-3v-9.2c0-1.5-0.5-1.6-1.9-1.5v-2.6
				c2.4-0.4,4,0,4.5,1.9c1.3-1.5,2.9-2.1,4.8-2.1C161.2,145.3,163.2,147.5,163.2,150.8z"/>
			<path class="st1" d="M181.6,156.3v2.5c-2.5,0.4-4-0.1-4.5-1.9c-1.2,1.4-2.7,2.2-4.8,2.2c-3.8,0-6.2-2.9-6.2-6.8
				c0-4.2,2.6-7,6.5-7c1.4,0,2.8,0.3,4.1,1v-6.7h3v15.1C179.7,156.1,180.1,156.5,181.6,156.3z M176.7,152.3v-3.4
				c-1.5-0.8-2.7-0.9-3.7-0.9c-2.5,0-3.9,1.6-3.9,4.3c0,2.6,1.5,4.1,3.8,4.1C175.3,156.4,176.7,154.9,176.7,152.3z"/>
			<path class="st1" d="M189.5,149.2c0-5.8,4-9.9,9.6-9.9c4.4,0,7.9,2.2,9,6.4h-3.2c-1-2.1-3-3.4-5.7-3.4c-3.8,0-6.4,2.7-6.4,6.8
				c0,4.1,2.6,6.8,6.4,6.8c2.8,0,4.9-1.4,5.7-3.7h3.3c-1,4.4-4.6,6.8-9.1,6.8C193.5,159,189.5,154.9,189.5,149.2z"/>
			<path class="st1" d="M210.2,152.1c0-4,3-6.8,7.1-6.8c4.1,0,7.2,2.8,7.2,6.8c0,4.1-3.1,6.9-7.2,6.9
				C213.2,159,210.2,156.2,210.2,152.1z M221.5,152.1c0-2.6-1.7-4.2-4.1-4.2c-2.4,0-4.1,1.6-4.1,4.2c0,2.6,1.6,4.3,4.1,4.3
				C219.9,156.4,221.5,154.8,221.5,152.1z"/>
			<path class="st1" d="M242.3,156.3v2.5c-2.5,0.4-4-0.1-4.5-1.9c-1.2,1.4-2.7,2.2-4.8,2.2c-3.8,0-6.2-2.9-6.2-6.8
				c0-4.2,2.6-7,6.5-7c1.4,0,2.8,0.3,4.1,1v-6.7h3v15.1C240.4,156.1,240.8,156.5,242.3,156.3z M237.4,152.3v-3.4
				c-1.5-0.8-2.7-0.9-3.7-0.9c-2.5,0-3.9,1.6-3.9,4.3c0,2.6,1.5,4.1,3.8,4.1C236,156.4,237.4,154.9,237.4,152.3z"/>
			<path class="st1" d="M244.4,141.7c0-1.1,0.8-1.7,1.8-1.7c1,0,1.8,0.7,1.8,1.7s-0.8,1.7-1.8,1.7
				C245.2,143.4,244.4,142.7,244.4,141.7z M244.7,145.6h3v13.2h-3V145.6z"/>
			<path class="st1" d="M264.5,150.8v8h-3V151c0-2-1-3.1-3-3.1c-2.2,0-3.5,1.6-3.5,3.8v7h-3v-9.2c0-1.5-0.5-1.6-1.9-1.5v-2.6
				c2.4-0.4,4,0,4.5,1.9c1.3-1.5,2.9-2.1,4.8-2.1C262.5,145.3,264.5,147.5,264.5,150.8z"/>
			<path class="st1" d="M280.7,146.6v12.2c0,3.8-2.5,6-6.5,6c-2.3,0-4.4-0.5-6.2-1.5l1-2.4c1.7,0.9,3.6,1.3,5.1,1.3
				c2.4,0,3.5-1.1,3.5-3.3v-1.1c-1.1,0.4-2.4,0.7-3.7,0.7c-3.8,0-6.6-2.5-6.6-6.6c0-4,3-6.5,7.5-6.5
				C276.9,145.3,279,145.8,280.7,146.6z M277.7,155.3v-6.9c-0.9-0.3-1.8-0.4-2.7-0.4c-2.7,0-4.5,1.4-4.5,3.9c0,2.9,1.8,4,4.1,4
				C275.5,155.9,276.5,155.7,277.7,155.3z"/>
			<path class="st1" d="M290.5,153h3.1c0.1,2,1.8,3.1,4.5,3.1c2.7,0,4.4-1,4.4-2.8c0-1.7-1.5-2.5-4.7-2.8c-4.6-0.5-7-2.4-7-5.7
				c0-3.2,2.8-5.5,7.2-5.5c4.3,0,7,2.3,7.3,5.7h-3.1c-0.2-1.8-1.6-2.8-4.2-2.8c-2.5,0-4,1-4,2.5c0,1.8,1.3,2.5,4.4,2.9
				c5.1,0.6,7.4,2.4,7.4,5.6c0,3.5-2.9,5.8-7.6,5.8C293.7,159,290.7,156.6,290.5,153z"/>
			<path class="st1" d="M308.1,152.1c0-4,2.9-6.8,7.1-6.8c3.2,0,5.8,1.9,6.4,4.8h-2.8c-0.6-1.4-1.8-2.2-3.6-2.2c-2.3,0-4,1.7-4,4.2
				c0,2.6,1.6,4.3,4,4.3c1.8,0,3-0.8,3.5-2.4h2.9c-0.7,3.3-3.2,5-6.5,5C311.1,159,308.1,156.1,308.1,152.1z"/>
			<path class="st1" d="M337.1,150.8v8h-3V151c0-2-1.2-3.1-3-3.1c-2.2,0-3.4,1.6-3.4,3.8v7h-3v-19.2h3v7.4c1.2-1.1,2.5-1.7,4.3-1.7
				C335,145.3,337.1,147.5,337.1,150.8z"/>
			<path class="st1" d="M340,152.1c0-4,3-6.8,7.1-6.8c4.1,0,7.2,2.8,7.2,6.8c0,4.1-3.1,6.9-7.2,6.9C343,159,340,156.2,340,152.1z
				 M351.2,152.1c0-2.6-1.7-4.2-4.1-4.2s-4.1,1.6-4.1,4.2c0,2.6,1.6,4.3,4.1,4.3S351.2,154.8,351.2,152.1z"/>
			<path class="st1" d="M356.5,152.1c0-4,3-6.8,7.1-6.8c4.1,0,7.2,2.8,7.2,6.8c0,4.1-3.1,6.9-7.2,6.9
				C359.5,159,356.5,156.2,356.5,152.1z M367.8,152.1c0-2.6-1.7-4.2-4.1-4.2c-2.4,0-4.1,1.6-4.1,4.2c0,2.6,1.6,4.3,4.1,4.3
				S367.8,154.8,367.8,152.1z"/>
			<path class="st1" d="M373.9,153.9v-14.3h3v14.3c0,1.9,0.4,2.4,1.8,2.4c0.3,0,0.7,0,1.1-0.1v2.5c-0.7,0.2-1.4,0.2-2,0.2
				C375.1,158.9,373.9,157.5,373.9,153.9z"/>
		</g>
	</g>
</g>
<g>
</g>
<g>
</g>
<g>
</g>
<g>
</g>
<g>
</g>
<g>
</g>
</svg>
